<svg width="67" height="83" viewBox="0 0 67 83" fill="none" xmlns="http://www.w3.org/2000/svg">
<path d="M2 74.9141C5.12301 66.9016 8.24603 58.8892 11.369 50.8767C12.8897 50.395 14.9499 50.0096 16.6667 50.957C19.0376 52.2576 18.7596 54.9873 21.0978 56.866C22.2751 57.8133 24.2862 58.6965 27.9815 58.2629C24.9893 65.9543 22.0134 73.6295 19.0212 81.3209C16.9774 78.0292 14.9335 74.7375 12.8897 71.4458C9.25978 72.6019 5.62989 73.758 2 74.9141Z" stroke="#FA790E" stroke-width="3" stroke-miterlimit="10" stroke-linecap="round" stroke-linejoin="round"/>
<path d="M65.0001 75.0274C61.877 67.0149 58.754 59.0024 55.631 50.99C54.1104 50.5083 52.0502 50.1229 50.3333 51.0703C47.9625 52.3709 48.2404 55.1006 45.9023 56.9792C44.725 57.9266 42.7138 58.8097 39.0186 58.3762C42.0108 66.0675 44.9866 73.7428 47.9788 81.4341C50.0227 78.1424 52.0665 74.8507 54.1104 71.559C57.7403 72.7151 61.3702 73.8712 65.0001 75.0274Z" stroke="#FA790E" stroke-width="3" stroke-miterlimit="10" stroke-linecap="round" stroke-linejoin="round"/>
<path d="M22.1604 3.301C20.558 4.52133 20.8032 5.6935 19.0373 7.81303C18.4978 8.45531 17.9745 9.08154 17.1406 9.62747C14.7044 11.2332 13.151 9.94862 10.9927 11.2171C8.5074 12.6944 8.00052 15.97 7.91877 16.5159C7.65715 18.1698 8.11498 18.7479 8.18038 20.1609C8.36024 24.9941 3.35688 26.102 3.17702 30.2126C2.99716 34.1626 7.59175 34.8049 8.14768 40.3928C8.32754 42.2233 7.08487 43.3954 7.72256 45.4347C8.26213 47.1688 9.5702 48.3731 10.1588 48.8067C12.824 50.7977 14.4591 49.2884 16.6992 50.9423C18.6449 52.3874 17.7783 53.7843 20.3291 56.0644C20.9504 56.6104 22.1277 57.638 23.9753 58.1519C25.8066 58.6496 27.3599 58.3927 28.5862 58.1519C31.2841 57.6541 31.1206 56.8994 32.9029 56.7228C35.6171 56.4498 36.3039 58.1519 39.8193 58.4248C40.8167 58.5051 42.5989 58.6496 44.3648 57.8628C47.5369 56.4659 46.8011 53.8646 49.826 51.5685C53.1452 49.0636 56.072 50.6372 58.1649 47.763C59.2441 46.2857 59.4567 44.6639 59.4567 44.6639C59.6692 43.0261 59.0806 42.2072 59.2932 40.0556C59.3422 39.5899 59.424 38.7228 59.751 37.7915C60.8628 34.6604 63.4463 34.3714 64.1494 31.8986C64.5581 30.4374 64.0513 29.1207 63.7079 28.2376C62.4816 25.0583 59.9308 25.0422 59.3095 22.2804C59.2278 21.9432 59.2768 20.8032 59.3422 18.5231C59.4076 16.4838 59.5057 15.9058 59.2441 14.9905C58.8026 13.4009 57.7725 12.3893 57.3801 12.0039C54.6495 9.38662 52.1642 11.2332 49.4009 9.09759C46.9483 7.20286 47.913 5.16362 44.8554 3.1886C44.4302 2.91563 43.0077 2.01644 41.0783 2.00038C39.6394 1.98432 38.5276 2.48209 37.5138 2.93169C35.9932 3.60608 35.6498 4.13597 34.3418 4.31259C33.9166 4.37682 33.1154 4.47316 32.2161 4.16808C31.4476 3.91117 31.2514 3.57397 30.1886 3.04409C29.7635 2.81929 29.2239 2.61055 28.4881 2.4018C27.736 2.19306 26.3952 1.82375 24.7438 2.16095C24.3023 2.25729 23.2068 2.49815 22.1604 3.301Z" stroke="#FA790E" stroke-width="3" stroke-miterlimit="10"/>
<path d="M33.5574 12.2442C23.4035 12.2602 15.0483 20.6099 15.1464 30.5813C15.2445 40.344 23.4363 48.3565 33.2468 48.5331C43.695 48.7258 52.41 39.9426 52.0339 29.7142C51.6742 20.1603 43.4824 12.2281 33.5574 12.2442Z" stroke="#FA790E" stroke-width="3" stroke-miterlimit="10"/>
<path d="M33.5898 35.9931C35.65 36.9083 37.6938 37.8396 39.754 38.7549C39.5088 36.539 39.2472 34.3231 39.0019 32.1073C40.4408 30.5658 41.896 29.0243 43.3349 27.4828C41.1602 27.0814 38.9855 26.6639 36.7945 26.2625C35.7644 24.2875 34.7343 22.3285 33.6879 20.3535C32.5924 22.2804 31.4969 24.2072 30.4013 26.1341C28.1613 26.5997 25.9212 27.0493 23.6648 27.515C25.2345 29.0243 26.7878 30.5497 28.3575 32.0591C28.0305 34.3874 27.7035 36.7156 27.3928 39.0439C29.4857 38.0484 31.5296 37.0207 33.5898 35.9931Z" stroke="#FA790E" stroke-width="3" stroke-miterlimit="10" stroke-linecap="round" stroke-linejoin="round"/>
</svg>
