<svg width="66" height="58" viewBox="0 0 66 58" fill="none" xmlns="http://www.w3.org/2000/svg">
<path d="M33 0.00976562C14.7727 0.00976562 0.116016 12.0135 0.116016 26.8223C0.116016 33.2186 2.86816 39.0658 7.4598 43.6703C5.84848 50.1633 0.464063 55.9512 0.39961 56.0157C0.109571 56.3057 0.0290044 56.7548 0.206251 57.1415C0.367254 57.5282 0.724583 57.7559 1.14353 57.7559C9.68357 57.7559 15.9806 53.6618 19.2677 51.1314C23.474 52.7105 28.1649 53.6309 33.1123 53.6309C51.3396 53.6309 65.9963 41.6259 65.9963 26.9344C65.9963 12.243 51.2273 0.00976562 33 0.00976562ZM16.384 30.9473C14.0959 30.9473 12.259 29.1103 12.259 26.9383C12.259 24.7662 14.0959 22.8133 16.384 22.8133C18.6721 22.8133 20.509 24.6502 20.509 26.9383C20.509 29.2264 18.7816 30.9473 16.384 30.9473ZM33 30.9473C30.7119 30.9473 28.991 29.1103 28.991 26.9383C28.991 24.7662 30.8279 22.8133 33 22.8133C35.1721 22.8133 37.009 24.6502 37.009 26.9383C37.009 29.2264 35.2945 30.9473 33 30.9473ZM49.384 30.9473C47.0959 30.9473 45.259 29.1103 45.259 26.9383C45.259 24.7662 47.0959 22.8133 49.384 22.8133C51.6721 22.8133 53.509 24.6502 53.509 26.9383C53.509 29.2264 51.7816 30.9473 49.384 30.9473Z" fill="#FA790E"/>
</svg>
