<svg width="68" height="81" viewBox="0 0 68 81" fill="none" xmlns="http://www.w3.org/2000/svg">
<path d="M33.7047 80.9445C23.1006 80.9445 12.4966 80.9445 1.92041 80.9445C0.417481 80.9445 0 80.555 0 79.0805C0 72.2367 0 65.365 0 58.5211C0 57.1022 0.417481 56.6849 1.86475 56.6849C4.5923 56.6849 7.31984 56.6571 10.0474 56.7128C10.6875 56.7128 10.8267 56.5458 10.8267 55.9338C10.7989 49.6185 10.7989 43.3032 10.7989 36.9601C10.7989 35.5134 11.2163 35.124 12.6636 35.124C15.3911 35.124 18.1187 35.0961 20.8462 35.1518C21.4864 35.1518 21.6255 35.0127 21.6255 34.3728C21.5977 28.0575 21.5977 21.7422 21.5977 15.3991C21.5977 13.9525 22.0152 13.5352 23.4346 13.5352C30.2813 13.5352 37.1558 13.5352 44.0025 13.5352C45.4776 13.5352 45.8673 13.9525 45.8673 15.4548C45.8673 21.6866 45.8951 27.9184 45.8395 34.1781C45.8395 35.0127 46.0899 35.1518 46.8414 35.1518C49.5133 35.0961 52.1852 35.124 54.8571 35.124C56.2208 35.124 56.6383 35.5691 56.6383 36.9601C56.6383 43.2754 56.6383 49.5907 56.6105 55.9338C56.6105 56.6293 56.8053 56.7406 57.4454 56.7406C60.2008 56.7128 62.9562 56.7128 65.7116 56.7406C66.964 56.7406 67.4372 57.2135 67.4372 58.4655C67.4372 65.365 67.4372 72.2923 67.4372 79.1918C67.4372 80.5828 67.0197 81.0002 65.6281 81.0002C55.0241 80.9445 44.3644 80.9445 33.7047 80.9445ZM43.1954 25.6371C43.1954 22.6881 43.1954 19.7392 43.1954 16.7902C43.1954 16.3172 43.0841 16.1503 42.6109 16.1781C41.6925 16.2059 40.7462 16.2338 39.8277 16.1781C39.2711 16.1503 39.1319 16.2894 39.1319 16.8736C39.1598 19.2384 39.1319 21.6031 39.1598 23.9401C39.1598 24.6356 39.0206 25.2198 38.297 25.5258C37.5733 25.8319 37.0723 25.4702 36.5714 24.9973C35.7642 24.1626 34.9293 23.3837 34.15 22.549C33.8438 22.2152 33.649 22.2152 33.3428 22.549C32.5635 23.3837 31.7008 24.1905 30.8936 24.9973C30.4205 25.498 29.8917 25.8319 29.168 25.5258C28.4722 25.2198 28.3052 24.6356 28.3052 23.9401C28.3331 21.5475 28.3052 19.1549 28.3331 16.7902C28.3331 16.3172 28.1939 16.1781 27.7208 16.1781C26.8023 16.2059 25.856 16.2338 24.9376 16.1781C24.3809 16.1503 24.2418 16.3172 24.2418 16.8736C24.2696 22.716 24.2696 28.5583 24.2418 34.4006C24.2418 34.957 24.3809 35.0961 24.9376 35.0961C30.7823 35.0683 36.627 35.0683 42.4718 35.0961C43.0284 35.0961 43.1676 34.957 43.1676 34.4006C43.1676 31.4795 43.1954 28.5583 43.1954 25.6371ZM53.9664 47.2537C53.9664 44.3326 53.9386 41.4114 53.9943 38.4902C53.9943 37.8782 53.8273 37.7391 53.2428 37.7669C52.3522 37.8226 51.4337 37.8226 50.5431 37.7669C49.9864 37.7391 49.9029 37.9338 49.9029 38.4346C49.9308 40.8272 49.9029 43.2198 49.9308 45.5845C49.9308 46.2522 49.7638 46.8086 49.0958 47.0868C48.4278 47.3928 47.899 47.1146 47.4259 46.6417C46.6188 45.8349 45.756 45.0281 45.0045 44.1935C44.6148 43.7483 44.3922 43.8318 44.0304 44.2213C43.2789 45.0281 42.4718 45.7793 41.7203 46.5582C41.2472 47.059 40.7184 47.4207 40.0226 47.1146C39.2711 46.8086 39.1319 46.1966 39.1319 45.4732C39.1598 43.1363 39.1319 40.7994 39.1598 38.4902C39.1598 37.9895 39.1041 37.7391 38.4918 37.7669C37.5733 37.8226 36.627 37.8226 35.7086 37.7669C35.1519 37.7391 35.0684 37.9617 35.0963 38.4346C35.1241 44.3048 35.1241 50.1749 35.0963 56.0451C35.0963 56.6015 35.2633 56.6849 35.7642 56.6849C41.6368 56.6571 47.5094 56.6571 53.382 56.6849C53.9386 56.6849 54.0221 56.518 54.0221 56.0172C53.9664 53.0961 53.9664 50.1749 53.9664 47.2537ZM21.5977 68.8425C21.5977 65.8936 21.5977 62.9446 21.5977 59.9956C21.5977 59.467 21.4864 59.3279 20.9576 59.3557C20.0391 59.4114 19.0928 59.4114 18.1744 59.3557C17.6455 59.3279 17.5064 59.467 17.5342 59.9956C17.5621 62.3603 17.5342 64.7251 17.562 67.062C17.562 67.7575 17.4507 68.3418 16.7549 68.6756C16.0035 69.0095 15.4746 68.6478 14.9737 68.1192C14.1944 67.3124 13.3594 66.5334 12.6079 65.7266C12.274 65.365 12.0791 65.3928 11.7451 65.7266C10.9658 66.5334 10.1587 67.3124 9.37942 68.1192C8.90627 68.62 8.40529 68.9816 7.68166 68.7034C6.93019 68.3974 6.79103 67.7854 6.79103 67.062C6.81886 64.6973 6.79103 62.3325 6.81886 59.9956C6.81886 59.467 6.6797 59.3279 6.15089 59.3557C5.23243 59.4114 4.28614 59.4114 3.36768 59.3557C2.83887 59.3279 2.72755 59.4948 2.72755 60.0234C2.75538 65.8936 2.75538 71.7637 2.72755 77.6339C2.72755 78.1625 2.86671 78.2737 3.36768 78.2737C9.24026 78.2459 15.1128 78.2459 20.9854 78.2737C21.5142 78.2737 21.6255 78.1346 21.6255 77.6339C21.5699 74.6849 21.5977 71.7637 21.5977 68.8425ZM43.1954 68.8425C43.1954 65.8936 43.1954 62.9446 43.1954 59.9956C43.1954 59.467 43.0841 59.3279 42.5553 59.3557C41.6368 59.4114 40.6905 59.4114 39.7721 59.3557C39.2433 59.3279 39.1041 59.467 39.1319 59.9956C39.1598 62.3603 39.1319 64.7251 39.1598 67.062C39.1598 67.7575 39.0484 68.3418 38.3526 68.6756C37.6012 69.0095 37.0723 68.6478 36.5714 68.1192C35.7921 67.3124 34.9571 66.5334 34.2056 65.7266C33.8717 65.365 33.6768 65.3928 33.3428 65.7266C32.5635 66.5334 31.7564 67.3124 30.9771 68.1192C30.504 68.62 30.003 68.9816 29.2794 68.7034C28.5279 68.3974 28.3887 67.7854 28.3887 67.062C28.4166 64.6973 28.3887 62.3325 28.4166 59.9956C28.4166 59.467 28.2774 59.3279 27.7486 59.3557C26.8301 59.4114 25.8838 59.4114 24.9654 59.3557C24.4366 59.3279 24.3253 59.4948 24.3253 60.0234C24.3531 65.8936 24.3531 71.7637 24.3253 77.6339C24.3253 78.1625 24.4644 78.2737 24.9654 78.2737C30.838 78.2459 36.7105 78.2459 42.5831 78.2737C43.1119 78.2737 43.2232 78.1346 43.2232 77.6339C43.1676 74.6849 43.1954 71.7637 43.1954 68.8425ZM64.7653 68.8704C64.7653 65.9214 64.7653 62.9724 64.7653 60.0234C64.7653 59.5226 64.6818 59.3279 64.1251 59.3557C63.2345 59.4114 62.3161 59.4114 61.4254 59.3557C60.841 59.3279 60.674 59.467 60.674 60.079C60.7018 62.4438 60.674 64.8086 60.7018 67.1455C60.7018 67.841 60.5348 68.4252 59.8112 68.7034C59.1432 68.9816 58.6144 68.6478 58.1691 68.2027C57.3619 67.3959 56.527 66.5891 55.7477 65.7545C55.4137 65.4206 55.2189 65.3928 54.8849 65.7545C54.1613 66.5334 53.382 67.2568 52.6305 68.0357C52.1017 68.5643 51.5729 69.0929 50.7379 68.7034C49.9586 68.3696 49.9029 67.6741 49.9029 66.9229C49.9308 64.6138 49.9029 62.3047 49.9308 60.0234C49.9308 59.5226 49.8195 59.3279 49.2906 59.3557C48.4 59.4114 47.4816 59.4114 46.5909 59.3557C46.0065 59.3279 45.8395 59.4948 45.8395 60.079C45.8673 65.8936 45.8673 71.7081 45.8395 77.5226C45.8395 78.1068 45.9508 78.2737 46.5631 78.2737C52.38 78.2459 58.1969 78.2459 64.0138 78.2737C64.5983 78.2737 64.7653 78.1624 64.7653 77.5504C64.7653 74.6571 64.7653 71.7637 64.7653 68.8704ZM32.3966 47.2259C32.3966 44.2769 32.3966 41.328 32.3966 38.379C32.3966 37.906 32.2852 37.7391 31.8121 37.7669C30.8936 37.7947 29.9473 37.8226 29.0289 37.7669C28.4722 37.7391 28.3331 37.8782 28.3331 38.4624C28.3609 41.2723 28.3331 44.0822 28.3609 46.8921C28.3609 47.5876 28.2217 48.1718 27.4981 48.4779C26.7745 48.7839 26.2735 48.4222 25.7725 47.9493C24.9654 47.1146 24.1304 46.3357 23.3511 45.501C23.045 45.1672 22.8501 45.1672 22.544 45.501C21.7647 46.3078 20.9576 47.0868 20.1783 47.8936C19.6773 48.3944 19.1763 48.8117 18.397 48.4779C17.6455 48.1718 17.5342 47.532 17.5342 46.8086C17.5621 44.0266 17.5342 41.2445 17.562 38.4624C17.562 37.906 17.4229 37.7391 16.8662 37.7669C15.9756 37.8226 15.0572 37.8226 14.1665 37.7669C13.6099 37.7391 13.4707 37.906 13.4707 38.4624C13.4986 44.3048 13.4986 50.1471 13.4707 55.9894C13.4707 56.5458 13.6099 56.6849 14.1665 56.6849C20.0113 56.6571 25.856 56.6571 31.7008 56.6849C32.2574 56.6849 32.3966 56.5458 32.3966 55.9894C32.3687 53.0683 32.3966 50.1471 32.3966 47.2259ZM25.6334 43.9987C25.6334 41.9122 25.6334 40.076 25.6334 38.2399C25.6334 37.8782 25.522 37.7669 25.1602 37.7669C23.6851 37.7947 22.1822 37.7947 20.7071 37.7669C20.2339 37.7669 20.2339 37.9617 20.2339 38.3233C20.2618 39.5474 20.2339 40.7994 20.2339 42.0235C20.2339 42.6077 20.2339 43.2198 20.2339 44.0266C20.9019 43.331 21.4029 42.8024 21.9317 42.3017C22.5997 41.6618 23.2676 41.6618 23.9356 42.3017C24.4922 42.7746 24.9654 43.331 25.6334 43.9987ZM31.0328 20.8242C31.0884 20.852 31.1719 20.9076 31.2276 20.9354C31.4503 20.6851 31.6451 20.4347 31.8956 20.1843C32.1461 19.9061 32.3966 19.6557 32.6749 19.4053C33.4263 18.7098 34.0665 18.682 34.8179 19.3775C35.3468 19.8783 35.8199 20.4068 36.46 21.0745C36.46 19.3775 36.46 17.9586 36.46 16.5398C36.46 16.1781 36.2931 16.1503 35.9869 16.1503C34.5118 16.1503 33.0089 16.1503 31.5338 16.1503C31.1719 16.1503 31.0328 16.2059 31.0606 16.5954C31.0606 18.0421 31.0328 19.4331 31.0328 20.8242ZM41.8316 42.6912C42.4996 41.9956 42.9728 41.4949 43.4737 40.9941C44.1974 40.2986 44.8653 40.2708 45.6168 40.9941C46.1178 41.4949 46.5909 42.0235 47.0641 42.5521C47.2589 41.0219 47.2311 39.6309 47.2589 38.2399C47.2589 37.8504 47.1476 37.7669 46.7858 37.7669C45.3106 37.7947 43.8077 37.7947 42.3326 37.7669C41.9708 37.7669 41.8595 37.8782 41.8595 38.2399C41.8595 39.6309 41.8316 41.0219 41.8316 42.6912ZM14.8345 64.2521C14.8345 62.5829 14.8345 61.1641 14.8345 59.7452C14.8345 59.467 14.7788 59.3557 14.4727 59.3557C12.9419 59.3557 11.3833 59.3557 9.85256 59.3557C9.65774 59.3557 9.46291 59.3279 9.46291 59.6339C9.46291 61.1084 9.46291 62.5551 9.46291 64.0296C9.88039 63.8627 10.0752 63.5844 10.2979 63.3341C10.5205 63.0837 10.771 62.8611 11.0215 62.6107C11.8286 61.8317 12.4688 61.8039 13.2759 62.5829C13.7491 63.0837 14.2222 63.6123 14.8345 64.2521ZM36.4322 64.2521C36.4322 62.5829 36.4322 61.1362 36.4322 59.6617C36.4322 59.2723 36.1539 59.3835 35.9591 59.3835C34.484 59.3835 32.981 59.3835 31.5059 59.3835C31.3111 59.3835 31.0328 59.3001 31.0328 59.6896C31.0328 61.1641 31.0328 62.6107 31.0328 64.28C31.7008 63.5844 32.2017 63.0559 32.7305 62.5551C33.3985 61.943 34.0665 61.9152 34.7345 62.5551C35.2911 63.0002 35.7642 63.5566 36.4322 64.2521ZM57.8351 64.1409C57.8908 64.0852 57.9743 64.0296 58.0299 64.0018C58.0299 62.6664 58.0299 61.3032 58.0299 59.9678C58.0299 59.6617 58.0856 59.3835 57.5846 59.3835C56.0817 59.4114 54.5509 59.3835 53.048 59.3835C52.7975 59.3835 52.6305 59.4114 52.6305 59.7452C52.6305 61.1919 52.6305 62.6385 52.6305 64.0574C53.2985 63.6401 53.7438 63.1115 54.2448 62.6107C54.9962 61.8596 55.6642 61.8596 56.4435 62.6107C56.9166 63.0837 57.3619 63.6123 57.8351 64.1409Z" fill="#FA790E"/>
<path d="M13.7491 5.83008C13.8883 5.96918 14.0275 6.08046 14.1388 6.19175C15.4747 7.52714 16.7828 8.86252 18.1466 10.1701C18.4806 10.4761 18.4528 10.6709 18.1466 10.9769C17.6178 11.4498 17.1725 12.2566 16.6158 12.3123C16.1984 12.3679 15.6417 11.5055 15.1686 11.0325C14.1666 10.0588 13.1925 9.05727 12.1905 8.05573C11.9122 7.80534 11.8566 7.6106 12.1905 7.33239C12.608 6.97072 12.9977 6.55341 13.3873 6.16393C13.4708 6.05264 13.61 5.96918 13.7491 5.83008Z" fill="#FA790E"/>
<path d="M48.1497 10.6128C49.7083 9.05481 51.1555 7.63596 52.6028 6.18928C52.9089 5.88326 53.0759 5.85544 53.4099 6.18928C54.9685 7.6916 54.9963 7.66378 53.4656 9.16609C52.5193 10.112 51.5452 11.0579 50.6267 12.0316C50.2371 12.4489 50.0144 12.4211 49.6804 12.0038C49.2351 11.5308 48.7063 11.1135 48.1497 10.6128Z" fill="#FA790E"/>
<path d="M35.0964 3.43631C35.0964 4.38221 35.0686 5.35593 35.0964 6.30183C35.0964 6.6635 34.9851 6.74696 34.6233 6.77478C32.3967 6.88606 32.3967 6.91389 32.3967 4.68824C32.3967 3.32503 32.4246 1.934 32.3967 0.570786C32.3967 0.125656 32.5081 0.0143736 32.9534 0.0143736C35.0964 -0.0412676 35.0964 -0.0412676 35.0964 2.10092C35.0964 2.51823 35.0964 2.96336 35.0964 3.43631Z" fill="#FA790E"/>
<path d="M12.7469 25.6366C11.8285 25.6366 10.8822 25.6088 9.96374 25.6366C9.54625 25.6366 9.46276 25.5253 9.43493 25.108C9.35143 22.9102 9.35143 22.9102 11.5502 22.9102C12.8861 22.9102 14.2499 22.938 15.5858 22.9102C16.059 22.9102 16.1981 23.0493 16.1981 23.5222C16.226 25.6366 16.226 25.6366 14.1664 25.6366C13.6932 25.6366 13.2201 25.6366 12.7469 25.6366Z" fill="#FA790E"/>
<path d="M54.5788 25.6381C53.6882 25.6381 52.7697 25.6102 51.8791 25.6381C51.4338 25.6659 51.2668 25.5546 51.2668 25.0538C51.2389 22.9395 51.2111 22.9395 53.382 22.9395C54.7179 22.9395 56.0817 22.9673 57.4177 22.9395C57.863 22.9395 58.03 23.0229 58.03 23.5237C58.0578 25.6381 58.0856 25.6381 55.9147 25.6381C55.4972 25.6381 55.0241 25.6381 54.5788 25.6381Z" fill="#FA790E"/>
</svg>
