<svg width="276" height="262" viewBox="0 0 276 262" fill="none" xmlns="http://www.w3.org/2000/svg">
<path d="M184.516 50.017L196.612 78.3601L227.436 81.1205C228.676 81.2445 229.754 81.8592 230.498 82.7434L230.622 82.9105C231.311 83.7971 231.649 84.9066 231.57 86.0268L231.554 86.1993C231.493 86.7538 231.333 87.2926 231.08 87.7898L231.01 87.9192C230.789 88.3236 230.503 88.6902 230.174 89.0083L206.73 109.491L213.636 139.732C213.884 140.934 213.63 142.131 213.021 143.101C212.536 143.877 211.829 144.49 210.992 144.861C210.155 145.231 209.227 145.343 208.326 145.182C207.71 145.081 207.122 144.852 206.601 144.508L180.241 128.744L153.665 144.632C152.587 145.258 151.353 145.398 150.242 145.118C149.058 144.821 148.041 144.066 147.412 143.02L147.32 142.848C146.782 141.862 146.622 140.713 146.873 139.618L153.751 109.491L130.48 89.17C130.024 88.7704 129.651 88.2846 129.383 87.7406C129.115 87.1967 128.956 86.6051 128.917 85.9998C128.841 84.8353 129.208 83.633 130.049 82.6733C130.469 82.1934 130.96 81.8214 131.494 81.5626C132.043 81.2931 132.647 81.1421 133.262 81.1043L163.864 78.3601L176.004 49.9415C176.485 48.8167 177.392 47.9286 178.527 47.4722C179.61 47.0355 180.877 47.0085 182.047 47.5099L182.176 47.5692C182.694 47.8064 183.141 48.1245 183.508 48.4912L183.653 48.6475C184.009 49.0465 184.295 49.494 184.494 49.9738L184.516 50.017V50.017ZM0 140.157H57.4964L55.1946 239.706H0V140.157ZM66.5742 231.667L68.4987 149.037L105.656 149.905C121.343 153.097 136.895 162.004 152.42 172.296L181.281 172.965C194.327 174.059 200.86 187.457 187.966 195.862C177.67 203.049 164.328 202.321 150.673 200.774C141.245 200.089 140.539 212.77 150.388 213.04C153.795 213.385 157.536 212.673 160.781 212.743C177.864 213.126 192.014 210.188 200.936 196.892L205.501 186.886L248.928 166.597C270.577 160.025 285.32 182.858 269.132 198.116C237.511 220.022 205.178 237.9 172.214 252.177C148.188 266.038 124.513 264.998 101.144 250.521L66.5742 231.667V231.667ZM96.9773 58.7728C94.7726 57.8454 93.7376 55.3006 94.6648 53.0955C95.592 50.8904 98.1363 49.8552 100.341 50.7826L118.437 58.4493C120.642 59.3766 121.677 61.9214 120.75 64.1265C120.302 65.1859 119.452 66.0244 118.387 66.458C117.322 66.8916 116.129 66.8849 115.068 66.4395L96.9773 58.7728ZM115.376 30.5698C113.688 28.8661 113.694 26.1164 115.392 24.4289C117.095 22.7414 119.844 22.7467 121.532 24.4451L135.353 38.4198C137.04 40.1182 137.035 42.8678 135.337 44.5554C133.634 46.2483 130.884 46.2375 129.197 44.5392L115.376 30.5698V30.5698ZM143.116 11.4623C142.205 9.24642 143.267 6.71242 145.482 5.80126C147.698 4.89009 150.231 5.94683 151.142 8.16273L158.614 26.3429C158.83 26.8696 158.941 27.4339 158.94 28.0035C158.938 28.5731 158.825 29.1369 158.606 29.6626C158.386 30.1882 158.066 30.6656 157.662 31.0673C157.258 31.4691 156.779 31.7873 156.253 32.004C154.037 32.9151 151.498 31.8584 150.587 29.6425L143.116 11.4623V11.4623ZM260.141 50.7826C262.346 49.8552 264.89 50.8904 265.817 53.0955C266.744 55.3006 265.715 57.8454 263.505 58.7728L245.414 66.4395C243.209 67.3668 240.664 66.3316 239.737 64.1265C239.516 63.602 239.399 63.0388 239.396 62.4694C239.392 61.8999 239.501 61.3352 239.715 60.8078C239.93 60.2804 240.247 59.8006 240.648 59.3959C241.048 58.9912 241.525 58.6695 242.05 58.4493L260.141 50.7826ZM238.95 24.4451C240.643 22.7467 243.392 22.7414 245.09 24.4289C246.788 26.1164 246.799 28.8661 245.106 30.5698L231.285 44.5392C229.597 46.2375 226.848 46.2483 225.15 44.5554C223.452 42.8678 223.441 40.1182 225.129 38.4198L238.95 24.4451V24.4451ZM209.34 8.16273C210.251 5.94683 212.79 4.89009 215 5.80126C217.215 6.71242 218.277 9.24642 217.366 11.4623L209.895 29.6425C209.678 30.1693 209.36 30.6482 208.958 31.052C208.557 31.4558 208.079 31.7765 207.554 31.9958C207.028 32.2151 206.464 32.3287 205.895 32.3301C205.325 32.3315 204.761 32.2207 204.235 32.004C202.019 31.0928 200.957 28.5588 201.868 26.3429L209.34 8.16273V8.16273ZM175.756 4.35094C175.756 1.95172 177.702 0 180.106 0C182.51 0 184.456 1.95172 184.456 4.35094V24.0084C184.456 26.4076 182.51 28.3593 180.106 28.3593C177.702 28.3593 175.756 26.4076 175.756 24.0084V4.35094V4.35094Z" />
</svg>
