<svg width="66" height="58" viewBox="0 0 66 58" fill="none" xmlns="http://www.w3.org/2000/svg">
<path d="M64.1121 32.4766C65.318 30.7944 66 29 66 26.8307C66 21.8446 60.8825 17.1361 54.1997 17.1361H49.1838C49.8603 15.6849 50.4006 13.9495 50.4006 11.8639C50.4006 3.61775 45.2183 0 37.301 0C28.83 0 29.3132 10.7541 27.434 12.3023C24.3063 14.8792 20.6119 19.8295 17.9795 21.75H4.4C1.96996 21.75 0 23.373 0 25.375V52.5625C0 54.5645 1.96996 56.1875 4.4 56.1875H13.2C15.2478 56.1875 16.9686 55.035 17.4595 53.4744C23.5795 53.5878 27.7802 57.9989 41.9072 57.9989C42.9 57.9989 44 58 44.9625 58C55.5661 58 60.3606 53.5341 60.4918 47.2009C62.3231 45.1137 63.2829 42.316 62.876 39.6122C64.2309 37.5219 64.7548 35.0421 64.1121 32.4766ZM55.6215 38.5745C57.3485 40.9682 55.7948 44.1718 53.7048 45.0961C54.7635 50.622 51.2836 52.5614 46.4007 52.5614H41.2005C31.3501 52.5614 24.9715 48.2771 17.6 48.2771V27.1875H19.1015C23.001 27.1875 28.4487 19.157 32.1007 16.1471C36.0003 12.9345 34.7009 7.57965 37.301 5.4375C43.8006 5.4375 43.8006 9.17352 43.8006 11.8639C43.8006 16.3012 39.9011 18.2893 39.9011 22.5736H54.1997C57.1024 22.5736 59.3876 24.7157 59.4 26.8579C59.4124 28.9989 57.6373 31.141 56.3379 31.141C58.1926 32.7898 58.5889 36.2654 55.6215 38.5745ZM12.1 48.9375C12.1 50.439 10.6226 51.6562 8.8 51.6562C6.97744 51.6562 5.5 50.439 5.5 48.9375C5.5 47.436 6.97744 46.2188 8.8 46.2188C10.6226 46.2188 12.1 47.436 12.1 48.9375Z" fill="#FA790E"/>
</svg>
