<svg width="50" height="50" viewBox="0 0 50 50" fill="none" xmlns="http://www.w3.org/2000/svg">
<rect width="50" height="50" rx="8" fill="#FA790E"/>
<path d="M18.5226 18.3431H22.5871H22.7226C22.8581 18.3431 22.8581 18.4781 22.8581 18.4781L22.9935 18.6131V18.7482V22.3942C22.9935 22.5292 22.9935 22.5292 22.9935 22.5292L22.8581 22.6642L22.7226 22.7993H22.5871H18.5226C18.3871 22.7993 18.3871 22.7993 18.3871 22.7993L18.2516 22.6642L18.1161 22.5292V22.3942V18.8832V18.7482C18.1161 18.6131 18.1161 18.6131 18.2516 18.6131L18.3871 18.4781L18.5226 18.3431ZM34.5097 7H16.4903C15.6774 7 15 7.67518 15 8.4854V42.3796C15 43.1898 15.6774 43.865 16.4903 43.865H34.5097C35.3226 43.865 36 43.1898 36 42.3796V8.4854C36 7.67518 35.3226 7 34.5097 7ZM22.3161 10.1058C22.3161 10.1058 22.4516 10.1058 22.4516 10.2409C22.4516 10.3759 22.3161 10.3759 22.3161 10.3759C22.1806 10.3759 22.1806 10.3759 22.1806 10.2409C22.1806 10.1058 22.1806 10.1058 22.3161 10.1058ZM21.0968 9.83577C21.2323 9.83577 21.5032 9.9708 21.5032 10.2409C21.5032 10.3759 21.3677 10.646 21.0968 10.646C20.8258 10.646 20.6903 10.5109 20.6903 10.2409C20.6903 10.1058 20.8258 9.83577 21.0968 9.83577ZM19.471 9.70073C19.7419 9.70073 20.0129 9.9708 20.0129 10.2409C20.0129 10.5109 19.7419 10.781 19.471 10.781C19.0645 10.646 18.929 10.5109 18.929 10.2409C18.929 9.9708 19.0645 9.70073 19.471 9.70073ZM17.5742 9.56569C17.8452 9.56569 18.1161 9.83577 18.1161 10.1058C18.1161 10.3759 17.8452 10.646 17.5742 10.646C17.1677 10.646 17.0323 10.3759 17.0323 10.1058C17.0323 9.83577 17.3032 9.56569 17.5742 9.56569ZM25.4323 38.5985C26.6516 38.5985 27.6 39.5438 27.6 40.7591C27.6 41.9745 26.6516 42.9197 25.4323 42.9197C24.2129 42.9197 23.2645 41.9745 23.2645 40.7591C23.2645 39.5438 24.2129 38.5985 25.4323 38.5985ZM23.5355 10.1058H27.1935C27.329 10.1058 27.4645 10.2409 27.4645 10.3759C27.4645 10.5109 27.329 10.646 27.1935 10.646H23.5355C23.4 10.646 23.2645 10.5109 23.2645 10.3759C23.2645 10.2409 23.4 10.1058 23.5355 10.1058ZM34.2387 38.0584H16.6258V12.8066H34.2387V38.0584ZM32.4774 18.6131H31.3935C31.3935 18.6131 31.2581 18.6131 31.2581 18.7482V19.8285H29.7677C29.7677 19.8285 29.6323 19.8285 29.6323 19.9635V21.5839C29.6323 21.5839 29.6323 21.719 29.7677 21.719H31.3935C31.3935 21.719 31.3935 21.719 31.3935 21.5839V19.9635H32.4774C32.4774 19.9635 32.6129 19.9635 32.6129 19.8285L32.4774 18.6131C32.6129 18.6131 32.6129 18.6131 32.4774 18.6131ZM26.7871 22.6642H28.6839V24.5547H26.7871V22.6642ZM32.6129 23.4745H31.1226V24.8248H32.6129V23.4745ZM31.1226 24.8248H29.6323V26.1752H31.1226V24.8248ZM32.6129 26.3102H31.2581V27.6606H32.6129V26.3102ZM23.9419 30.4964H25.8387V32.3869H23.9419V30.4964ZM24.4839 28.2007H25.8387V29.5511H24.4839V28.2007ZM26.7871 28.8759H27.6V29.5511H26.7871V28.8759ZM25.8387 29.5511H26.7871V30.4964H25.8387V29.5511ZM22.4516 24.8248H24.3484V26.7153H22.4516V24.8248ZM18.3871 23.4745H19.8774V24.8248H18.3871V23.4745ZM19.8774 24.8248H21.3677V26.1752H19.8774V24.8248ZM18.3871 26.3102H19.8774V27.6606H18.3871V26.3102ZM23.8065 21.9891H25.1613V23.3394H23.8065V21.9891ZM27.1935 20.6387H28.0065V21.4489H27.1935V20.6387ZM25.0258 18.6131H27.1935V20.6387H25.0258V18.6131ZM29.3613 29.281H31.3935V31.3066H29.3613V29.281ZM28.4129 27.9307H32.4774H32.6129C32.7484 27.9307 32.7484 27.9307 32.7484 28.0657L32.8839 28.2007V28.3358V31.8467V31.9818L32.7484 32.1168L32.6129 32.2518H32.4774H28.4129C28.2774 32.2518 28.2774 32.2518 28.2774 32.2518C28.2774 32.2518 28.1419 32.2518 28.1419 32.1168L28.0065 31.9818V31.8467V28.3358C28.0065 28.2007 28.0065 28.2007 28.0065 28.2007C28.0065 28.0657 28.0065 28.0657 28.1419 28.0657L28.2774 27.9307C28.2774 27.9307 28.2774 27.9307 28.4129 27.9307ZM32.4774 28.4708H28.4129V31.9818H32.4774V28.4708ZM19.6065 29.281H21.6387V31.3066H19.6065V29.281ZM18.5226 27.9307H22.5871H22.7226C22.8581 27.9307 22.8581 27.9307 22.8581 28.0657L22.9935 28.2007V28.3358V31.8467V31.9818L22.8581 32.1168L22.7226 32.2518H22.5871H18.5226C18.3871 32.2518 18.3871 32.2518 18.3871 32.2518C18.3871 32.2518 18.2516 32.2518 18.2516 32.1168L18.1161 31.9818V31.8467V28.3358C18.1161 28.2007 18.1161 28.2007 18.1161 28.2007C18.1161 28.0657 18.1161 28.0657 18.2516 28.0657L18.3871 27.9307H18.5226ZM22.5871 28.4708H18.5226V31.9818H22.5871V28.4708ZM19.6065 19.6934H21.6387V21.719H19.6065V19.6934ZM22.5871 18.8832H18.5226V22.3942H22.5871V18.8832Z" fill="white"/>
</svg>
