<svg width="19" height="19" viewBox="0 0 19 19" fill="none" xmlns="http://www.w3.org/2000/svg">
<path d="M17.5902 0.176758C17.1159 0.176758 16.5467 0.239146 15.8194 0.332729C15.0922 0.457506 14.5863 0.582284 14.3017 0.738255C13.9855 0.894227 13.5428 1.29975 12.9104 1.95483C12.3096 2.57872 11.5191 3.60813 10.5705 4.91829C9.62189 6.25964 8.79977 7.53861 8.10413 8.78638C7.47172 9.87818 6.83932 11.0948 6.20692 12.3737C5.76423 11.8122 5.28993 11.3755 4.81563 11.0324C4.21485 10.6268 3.61406 10.4085 3.07652 10.4085C2.53898 10.4085 1.90657 10.658 1.27417 11.126C0.641767 11.6563 0.293945 12.2178 0.293945 12.8104C0.293945 13.2784 0.578527 13.8087 1.17931 14.4326C2.03305 15.3684 2.7287 16.2418 3.23462 17.0217C3.61406 17.5832 3.86702 17.9575 4.02512 18.1447C4.21485 18.3318 4.43619 18.4878 4.68915 18.5814C4.94211 18.675 5.38479 18.7062 5.98557 18.7062C6.83932 18.7062 7.40848 18.6126 7.7563 18.4254C8.10413 18.2383 8.35709 17.9887 8.54681 17.6456C8.70491 17.3336 8.98949 16.7409 9.36893 15.8051C10.3175 13.4655 11.614 11.0012 13.2266 8.50563C14.8392 6.01009 16.3886 4.07604 17.8748 2.7035C18.2542 2.39155 18.4755 2.142 18.5704 1.98603C18.6969 1.79886 18.7601 1.54931 18.7601 1.29975C18.7601 0.987809 18.6336 0.707061 18.4123 0.488701C18.2542 0.301535 17.9696 0.176758 17.5902 0.176758Z" fill="white"/>
</svg>
