<svg xmlns="http://www.w3.org/2000/svg" viewBox="0 0 75.78 78.29">
    <g id="Capa_2" data-name="Capa 2">
        <g id="Capa_1-2" data-name="Capa 1">
            <path class="cls-1"
                d="M9.94,8v4.45a5,5,0,1,0,10,0c0-1.33,0-2.65,0-4V8h13c0,.16,0,.31,0,.46v4a5,5,0,0,0,9.85,1.09,5.91,5.91,0,0,0,.12-1.26c0-1.41,0-2.82,0-4.26h13v4.45a5,5,0,0,0,10,0c0-1.33,0-2.65,0-4V7.94h.93c1.33,0,2.68-.06,4,.1a5.87,5.87,0,0,1,5,5.62c0,.22,0,.45,0,.67V72.14a5.92,5.92,0,0,1-4.75,6,9.21,9.21,0,0,1-1.89.14H6.26A6,6,0,0,1,.15,73.6,6.4,6.4,0,0,1,0,72.22Q0,43.12,0,14A5.89,5.89,0,0,1,5.34,8C6.83,7.86,8.35,8,9.94,8ZM5,24.11V71.45a1.7,1.7,0,0,0,1.89,1.87H68.91a1.71,1.71,0,0,0,1.91-1.9V24.58c0-.15,0-.3,0-.47Z" />
            <path class="cls-1"
                d="M64.27,7.93v4.48a3.41,3.41,0,0,1-6.81.14c0-3.08-.05-6.16,0-9.25A3.35,3.35,0,0,1,60.94,0a3.39,3.39,0,0,1,3.33,3.44V7.93Z" />
            <path class="cls-1"
                d="M18.33,7.94c0,1.51,0,3,0,4.52a3.41,3.41,0,0,1-6,2.24,3.29,3.29,0,0,1-.85-2.2v-9a3.41,3.41,0,1,1,6.82,0C18.34,5,18.33,6.46,18.33,7.94Z" />
            <path class="cls-1"
                d="M41.29,7.94c0,1.49,0,3,0,4.48a3.41,3.41,0,1,1-6.81,0c0-3,0-6,0-9a3.4,3.4,0,0,1,6.72-.75,3.7,3.7,0,0,1,.08.88C41.3,5,41.29,6.48,41.29,7.94Z" />
            <path class="cls-1" d="M20.09,39.54H8.67V28.1H20.09Z" />
            <path class="cls-1" d="M55.66,39.52V28.1H67.11V39.52Z" />
            <path class="cls-1" d="M55.67,54.47V43H67.11V54.47Z" />
            <path class="cls-1" d="M8.66,58H20.1V69.38H8.66Z" />
            <path class="cls-1" d="M67.1,69.39H55.67V58H67.1Z" />
            <path class="cls-1" d="M35.77,28.09V39.53H24.34V28.09Z" />
            <path class="cls-1" d="M40,39.53V28.1H51.44V39.53Z" />
            <path class="cls-1" d="M24.33,43H35.77V54.46H24.33Z" />
            <path class="cls-1" d="M35.77,69.39H24.33V58H35.77Z" />
            <path class="cls-1" d="M51.43,69.39H40V58H51.43Z" />
            <path class="cls-1" d="M40,43H51.44V54.46H40Z" />
            <path class="cls-1" d="M8.66,43H20.11V54.45H8.66Z" />
        </g>
    </g>
</svg>