<svg width="32" height="42" viewBox="0 0 32 42" fill="none" xmlns="http://www.w3.org/2000/svg">
<g clip-path="url(#clip0_2726_4695)">
<path d="M14.3313 37.2254C13.9202 37.7825 13.7186 38.5037 13.7265 39.2249C13.7345 39.9461 13.9493 40.6605 14.3737 41.2039L14.4056 41.2449C14.8247 41.7576 15.3605 42.0071 15.8936 41.9969C16.4268 41.9866 16.9573 41.7166 17.3658 41.1868C22.0501 35.1507 26.6841 29.0154 31.3393 22.9349C31.3578 22.9178 31.3737 22.9007 31.3897 22.8802C31.8008 22.3231 32.0024 21.595 31.9944 20.8738C31.9865 20.1526 31.769 19.4349 31.3446 18.8914L31.2729 18.8025C26.639 12.8074 22.0103 6.79181 17.3631 0.806944C16.9573 0.280577 16.4268 0.0105574 15.8936 0.000303517C15.3605 -0.00995039 14.8247 0.239561 14.4056 0.755675L14.3658 0.806944C13.9493 1.34698 13.7345 2.05792 13.7265 2.77569C13.7186 3.49347 13.9202 4.21808 14.3313 4.77521L26.8565 20.9319L14.3313 37.2254ZM0.599211 36.5418C0.190723 37.0955 -0.00821631 37.8167 -0.000258755 38.5345C0.0076988 39.2557 0.222553 39.97 0.646956 40.5135L0.678786 40.5545C1.09523 41.0672 1.63369 41.3167 2.16685 41.3099C2.70001 41.2996 3.23316 41.0296 3.639 40.4998C8.2252 34.5901 12.9626 28.7796 17.6098 22.9417C17.6284 22.9246 17.647 22.9041 17.6655 22.8836C18.0767 22.3265 18.2783 21.5984 18.2703 20.8773C18.2623 20.1561 18.0448 19.4383 17.6204 18.8948C12.9812 13.1014 8.31804 7.32843 3.66818 1.54181L3.63635 1.49737C3.23051 0.971007 2.70001 0.704405 2.16685 0.694151C1.63369 0.683897 1.09788 0.933409 0.678786 1.4461L0.638998 1.49737C0.222553 2.03741 0.0076988 2.75177 -0.000258755 3.46612C-0.00821631 4.1839 0.193375 4.90851 0.604516 5.46564L13.1191 20.9285L0.599211 36.5418Z" fill="white"/>
</g>
<defs>
<clipPath id="clip0_2726_4695">
<rect width="32" height="42" fill="white"/>
</clipPath>
</defs>
</svg>
