<svg xmlns="http://www.w3.org/2000/svg" viewBox="0 0 100.75 76">
    <g id="Capa_2" data-name="Capa 2">
        <g id="Capa_1-2" data-name="Capa 1">
            <path class="cls-1"
                d="M100,55.44c.32-.17.75-.27.72-.91-3-3.3-6.91-4.14-11.3-3.6L87.7,45.08q-.89-3-1.75-5.92c-.57-1.93-1.2-3.83-1.7-5.93l3.19.59c.92.18,1.28,0,1.4-.94q.5-3.54,1-7.08a3.9,3.9,0,0,0-.14-.95c-.53,0-.93,0-1.34.08-1.13.15-2.27.33-3.4.49-1.31.19-2.62.36-3.93.56-.93.14-1.13.35-1.37,1.33a.39.39,0,0,1-.08.14,38.21,38.21,0,0,1-7.4-1.15c-.08-.27-.19-.57-.27-.88-.69-2.74-1.35-5.48-2.07-8.21a4.82,4.82,0,0,0-5.52-3.56,7.28,7.28,0,0,0-5.13,3.26,72.38,72.38,0,0,0-6.46,11.73,34,34,0,0,0-2.48,7.81c-.32,1.95-.19,3.76,1.5,5.13,0,0,0,.1.06.22H35.27a5.23,5.23,0,0,0-.79,0,1,1,0,0,0-1,1.14c0,.5.11,1,.16,1.49.1,1.08.34,1.3,1.44,1.32H59.31c.24,0,.47,0,.71,0,.88-.07,1.16-.42,1-1.33v-.34L67.13,46c-1.45,5-2.87,9.88-4.3,14.78-1.14,0-2.22,0-3.3,0a6.92,6.92,0,0,1-2-.41,3.23,3.23,0,0,1-2.29-3.22,10.25,10.25,0,0,1,.15-1.75A13.4,13.4,0,0,1,57,51.22c.63-1.13,1.36-2.2,2.05-3.29.2-.32.5-.63.06-1.09-.31,0-.68-.05-1.06-.05H36.52c-1.32,0-1.32,0-2.2,1H22.26a5.31,5.31,0,0,0-.8,0,1.37,1.37,0,0,0-1.13,1.37c.05.57.42.83,1.22.85H33.14c-1.2.62-2.24,1.14-3.26,1.71a2.4,2.4,0,0,1-1.25.34H11.68a3.78,3.78,0,0,0-1.21.18,1.23,1.23,0,0,0-.72,1.37c.12.49.48.74,1.14.76H26.23l-1.87,2H2.26c-.36,0-.71,0-1.06,0a1.31,1.31,0,0,0-1,.65A1,1,0,0,0,1,58.67a8.81,8.81,0,0,0,.89,0H22.65l-1.12,2H14.29a7,7,0,0,0-.79,0,1.36,1.36,0,0,0-1.16,1.34c.05.57.4.87,1.2.88,2,0,4.06,0,6.09,0h.88c.13.81-.57,1.52,0,2.38.45,0,1,.1,1.49.1l46,0h6.62c.31,0,.62,0,.91,0,.19.92-.18,1.8.31,2.69a7.68,7.68,0,0,0,1-.38l17.13-9.14C95.94,57.64,98,56.55,100,55.44ZM81,43a31.83,31.83,0,0,1-1.55,9.17,14.22,14.22,0,0,1-3.21,5.42,10.73,10.73,0,0,1-6.53,3.17l-1.49.13c.2-.53.37-1,.54-1.39,1.93-4.73,3.88-9.46,5.79-14.2a4.35,4.35,0,0,0-.06-3.68,3.3,3.3,0,0,0-1.72-1.69q-2.43-1-4.89-2c-2.21-.88-4.42-1.73-6.74-2.63a49.38,49.38,0,0,1,5.29-9.72,5.77,5.77,0,0,1,.35.6c.39.86.79,1.71,1.14,2.59a2.9,2.9,0,0,0,2.68,1.95c1,.08,2.06.12,3.08.21,2.11.18,4.22.39,6.32.58a3.06,3.06,0,0,1,.34.11c.1.75.22,1.53.3,2.31A61,61,0,0,1,81,43Z" />
            <path class="cls-1"
                d="M97.87,57.7l-5.2,2.8c.28.19.44.3.61.4a4.22,4.22,0,0,1,2.23,3.85A6.55,6.55,0,0,1,89.84,71a4.39,4.39,0,0,1-5.09-5.2c0-.33.09-.66.15-1.1l-5.18,2.76a8.34,8.34,0,0,0,1.09,4.4,8.74,8.74,0,0,0,8.93,4,12.35,12.35,0,0,0,8.07-4.64,10.85,10.85,0,0,0,2.48-9.38A7.41,7.41,0,0,0,97.87,57.7Z" />
            <path class="cls-1"
                d="M73.72,16.14a7.46,7.46,0,0,0,3-1.69l-.91-.67c-1-.7-2-1.37-3-2.09a3,3,0,0,1-1.24-3c.12-.88.32-1.74.46-2.61a.78.78,0,0,1,.64-.74c1.06.38,2.18.8,3.32,1.17s2.21.86,3.39,1.15c.17-2.22-1.61-5.39-4.29-6.73a8.36,8.36,0,0,0-9.1,1,8.15,8.15,0,0,0-2.53,8.94Z" />
            <path class="cls-1"
                d="M39,67.26A6.54,6.54,0,0,1,32.72,71a4.27,4.27,0,0,1-3.94-3.75c0-.25-.09-.5-.14-.8-1.65,0-3.22,0-4.83,0a5.69,5.69,0,0,0-.13,1,9.85,9.85,0,0,0,.84,3.77,8.57,8.57,0,0,0,9.31,4.7A12.47,12.47,0,0,0,43.32,69a6.51,6.51,0,0,0,.88-2.53H39.35C39.21,66.79,39.11,67,39,67.26Z" />
            <path class="cls-1"
                d="M10.58,40.83h.27q17,0,34,0a2.28,2.28,0,0,0,2.54-2.14q1.58-9.12,3.11-18.26c.08-.46.16-.93.2-1.39a1.53,1.53,0,0,0-1.53-1.77H29.73A2.4,2.4,0,0,0,27,19.54c-.5,3-1,5.91-1.47,8.87-.09.51-.21,1-.31,1.54l-.78,0c-1.15,0-2.3,0-3.45,0a1.3,1.3,0,0,0-1.44,1.32c0,.66.45,1,1.41,1h3.17c.23,0,.45.05.73.08-.12.65-.23,1.22-.35,1.88h-1c-2.21,0-4.42,0-6.63,0a2.59,2.59,0,0,0-1.16.29,1.16,1.16,0,0,0-.53,1.29c.13.45.49.68,1.1.72h7c.28,0,.55,0,.88,0-.13.69-.23,1.26-.34,1.86-.37,0-.65.05-.94.05H14.91c-1.24,0-2.47,0-3.71,0a2.75,2.75,0,0,0-1.23.37,1.1,1.1,0,0,0-.42,1.25A1,1,0,0,0,10.58,40.83Zm32.09-8.29a.45.45,0,0,1-.28.16l-1.78.35c-.49.1-1,.19-1.47.3a6.45,6.45,0,0,1-1.38.18h-.93a.44.44,0,0,0-.29.08,2.78,2.78,0,0,1-.82.38l-.43.11a.54.54,0,0,0-.29.17l-.65.7-.06.07s0,.07,0,.09a.78.78,0,0,0,.22,0h1.24a.26.26,0,0,1-.13.14c-.43.35-.87.69-1.31,1l-1.26,1a5.3,5.3,0,0,1-3-1.84l.67-.52a.46.46,0,0,1,.37-.11l.15,0,.3,0a.13.13,0,0,0,.14-.06l.06-.07.62-.76.2-.25a.19.19,0,0,0,0-.22,1.08,1.08,0,0,1-.08-.19.89.89,0,0,1,0-.56,1,1,0,0,1,.25-.4.56.56,0,0,1,.51-.21h9.1a.51.51,0,0,1,.24.1A.16.16,0,0,1,42.67,32.54ZM31.56,27.65A5.76,5.76,0,0,1,32.74,25a5.82,5.82,0,0,1,1.63-1.46,5.46,5.46,0,0,1,1.2-.56l.17-.06c.15-.05.19-.07.06-.2a.93.93,0,0,1-.2-.82.72.72,0,0,1,.1-.24A.94.94,0,0,1,37,21.28a.83.83,0,0,1,.46.77,1,1,0,0,1-.06.38.14.14,0,0,0,0,.06s0,.06,0,.07h.26a6.66,6.66,0,0,1,1.77.27,6.75,6.75,0,0,1,1.08.43,6.41,6.41,0,0,1,1.44,1,6.25,6.25,0,0,1,1,1.3,6.09,6.09,0,0,1,.67,1.68c0,.15,0,.3.08.45s0,.09-.08.11l-.12,0-1.65.27-2.61.42L36.52,29l-1.83.29-1.83.3-1.1.18h-.07a.1.1,0,0,1-.1-.08s0-.07,0-.1a7.77,7.77,0,0,1-.08-.83A6,6,0,0,1,31.56,27.65Zm-1.68,2.73a.14.14,0,0,1,.14-.13H45.39c.08,0,.13.05.15.14v.21a.16.16,0,0,1,0,.11l-.1.08-.69.5a.31.31,0,0,1-.21.07H31.06c-.28,0-.23,0-.48-.16s-.39-.29-.59-.43a.23.23,0,0,1-.12-.23A.86.86,0,0,1,29.88,30.38Z" />
        </g>
    </g>
</svg>