<svg xmlns="http://www.w3.org/2000/svg" viewBox="0 0 345.25 309.93"><defs><style>.cls-1{fill:#666;}</style></defs><title>ICONO RESTAURANTES</title><g id="Capa_2" data-name="Capa 2"><g id="Capa_1-2" data-name="Capa 1"><path class="cls-1" d="M113.74,160.11H41c-.58,25.36-.2,50.32-.27,75.27-.07,24.61,0,49.22,0,74.55h-30V295.6q0-77.74,0-155.5c0-6.1-.82-11.15-5.29-16.28-8.22-9.42-6.73-30.18,1.81-39.56C21.47,68.63,35.83,53.13,50.1,37.54c2.38-2.6,4.59-5.35,7.57-8.83-7.48-4-10.28-9.94-9.22-17.85,1-7.2,3.27-10,10.32-10.69A83.15,83.15,0,0,1,67.13.05H277.66c1.2,0,2.4,0,3.59,0,6.09-.12,13-.55,14.73,6.89,1.55,6.75,3,14.51-5.08,19.13-1,.59-2.21,1-4.27,1.93,6.81,7.53,12.32,13.67,17.89,19.76,11,12.06,22.14,24.06,33.16,36.13,9.06,9.93,10.44,30.39,1.68,40.52-4.17,4.83-4.84,9.57-4.84,15.21q.08,77.76,0,155.51v14.78H113.74ZM308.45,246.9v-86c-15.83-2.55-134-1.81-142.7.84v85.2ZM172.62,24.36v0c36.69,0,73.39.07,110.09,0,8.67,0,11.46-2.68,11.83-9.92.4-7.8-2.94-11.46-11.21-12.1-2.38-.18-4.78-.09-7.17-.09q-103.52,0-207,0c-3.19,0-6.39,0-9.56.26-5.7.51-8.32,4-8.83,9.49-.81,8.65,2.79,12.36,13,12.39C100,24.43,136.32,24.36,172.62,24.36ZM39,113.87h38.8C73.15,92.78,84.68,77.36,93,60.9c4-7.8,8-15.54,11.88-23.37,1.35-2.73,2.29-5.65,4.06-10.13-6,0-10.71.42-15.31-.09-7.54-.84-12.48,1.78-16.79,8.27-9.67,14.57-19.77,28.89-30.5,42.68C38.09,88.86,36.06,100.13,39,113.87Zm267.47.32c1.63-11.72,2.37-21.83-4.25-31C290.09,66.41,278.23,49.48,266,32.81c-1.69-2.32-4.71-4.82-7.34-5.08-7-.71-14.05-.25-22.76-.25,2.34,5.21,3.79,8.77,5.51,12.18,6.63,13.12,13,26.38,20.14,39.22,4.57,8.22,7.41,16.45,6.45,26-.29,2.92.74,6,1.22,9.35ZM133,28c-5.59,29.21-22.53,55.13-17.61,85.67h37.29c2.56-29.14,5-57,7.52-85.67Zm97.14,86c3.64-31.64-11.67-57.95-18.55-85.53H185c2.59,29,5.07,56.88,7.62,85.53Z"/></g></g></svg>