<svg width="150" height="150" viewBox="0 0 150 150" fill="none" xmlns="http://www.w3.org/2000/svg">
<path fill-rule="evenodd" clip-rule="evenodd" d="M42.0402 0.16121C35.2093 0.760093 28.8701 2.71175 23.1894 5.96479C10.1272 13.4444 1.50791 26.7206 0.14658 41.4572C0.00686729 42.9679 -0.0271133 52.3566 0.0198974 76.4086C0.0777949 106.057 0.11095 109.445 0.356231 110.823C1.5988 117.805 3.60212 123.187 6.9534 128.546C8.21923 130.571 10.6508 133.835 10.8932 133.835C10.9543 133.835 12.4753 132.706 14.2731 131.327C16.0708 129.948 17.7652 128.69 18.0382 128.534C18.8767 128.051 19.5117 128.015 22.0608 128.302C23.9032 128.509 24.6037 128.532 24.8605 128.395C25.2564 128.182 26.3647 126.871 30.3022 121.955C32.6091 119.075 33.1328 118.326 33.1321 117.907C33.1318 117.623 32.9098 116.821 32.6389 116.123C31.6223 113.505 31.6009 111.662 32.5634 109.624C33.1508 108.38 34.9004 106.531 35.9999 105.991L36.8559 105.572L76.0257 105.575C102.767 105.578 115.393 105.634 115.819 105.752C116.718 106.001 117.587 106.816 117.587 107.41C117.587 108.054 116.611 109.119 115.721 109.447C115.341 109.587 111.393 110.412 106.948 111.281C95.282 113.561 89.1567 114.797 87.7377 115.156C83.5168 116.223 79.972 116.595 72.621 116.742C66.2963 116.869 66.8205 116.781 64.6927 118.068C62.563 119.357 59.6312 120.454 55.2362 121.609L53.8342 121.977L51.8548 123.984C48.9394 126.94 46.6588 129.521 46.6588 129.865C46.6588 130.442 47.4826 130.529 52.9309 130.529C58.4224 130.529 59.2269 130.584 59.087 130.95C59.041 131.07 53.9247 135.167 47.7177 140.054C41.5104 144.94 36.4875 148.993 36.5557 149.059C36.6236 149.126 37.4588 149.302 38.4113 149.451C41.6231 149.954 49.1841 150.051 79.3189 149.978C110.901 149.902 109.278 149.946 113.766 149.038C123.67 147.034 133.483 141.015 139.907 133.003C145.161 126.451 148.351 119.133 149.701 110.534C149.982 108.746 150 106.644 150 75.0039V41.3746L149.626 39.0463C148.029 29.1123 143.605 20.3876 136.645 13.4465C128.728 5.55182 118.898 1.04681 107.625 0.147826C105.05 -0.0574208 44.3937 -0.045193 42.0402 0.16121ZM79.3189 5.85126C82.549 6.37875 85.0669 7.16454 87.8358 8.50922C95.3595 12.1632 101.045 18.9417 103.156 26.7753C103.862 29.3943 104.083 31.214 104.075 34.3469C104.043 47.5781 98.1452 61.0787 86.9363 73.5809C83.6535 77.2424 78.3464 82.1573 76.7993 82.9685C75.7803 83.5029 73.6117 83.4983 72.5215 82.9594C70.3983 81.91 63.104 74.7044 59.1294 69.7303C54.1322 63.4766 50.2084 56.5144 47.9451 49.8852C45.6804 43.252 44.7119 35.7528 45.4209 30.3356C46.0591 25.4577 47.7704 21.2482 50.7541 17.2166C55.4881 10.8201 63.1167 6.5688 71.5839 5.6085C73.3896 5.40375 77.3376 5.52769 79.3189 5.85126ZM72.556 13.3135C68.9263 13.7028 65.4089 14.9865 62.3304 17.0453C60.7668 18.0908 57.8517 21.0192 56.8592 22.5408C54.5515 26.0794 53.5455 29.3787 53.5353 33.4423C53.5267 36.8595 54.1042 39.3713 55.5666 42.2769C59.1619 49.4197 66.487 53.8478 74.7125 53.8506C82.7289 53.8534 90.1774 49.3755 93.7173 42.4254C95.3094 39.2996 95.8962 36.5306 95.7618 32.7813C95.6475 29.5965 95.118 27.4841 93.7526 24.7665C91.3641 20.0121 87.1692 16.3418 82.0606 14.5367C78.9979 13.4545 75.4716 13.0007 72.556 13.3135ZM141.932 88.2748C142.276 88.6752 142.33 88.9063 142.33 89.971C142.33 91.1352 142.3 91.2352 141.794 91.7708C141.175 92.4252 135.014 96.9482 134.443 97.167C134.224 97.251 108.824 97.3133 74.8711 97.3133H15.6814L13.7267 95.9022C12.6516 95.1261 10.9762 93.9176 10.0038 93.2168C7.86954 91.6786 7.66549 91.3633 7.75688 89.7439C7.86211 87.8782 7.50236 87.9921 13.6332 87.8855C16.5106 87.8356 46.4654 87.7984 80.1993 87.8029L141.534 87.8111L141.932 88.2748Z" fill="#FA790E"/>
</svg>
