<svg width="150" height="160" viewBox="0 0 150 160" fill="none" xmlns="http://www.w3.org/2000/svg">
<path d="M84.0264 151.081C84.0264 151.72 83.9268 152.285 83.7275 152.777C83.5283 153.27 83.2383 153.686 82.8574 154.025C82.4766 154.359 82.0078 154.614 81.4512 154.79C80.9004 154.966 80.25 155.054 79.5 155.054H78.5508V158.684C78.5508 158.742 78.5303 158.795 78.4893 158.842C78.4541 158.889 78.3926 158.927 78.3047 158.956C78.2168 158.985 78.0996 159.009 77.9531 159.026C77.8066 159.044 77.6191 159.053 77.3906 159.053C77.168 159.053 76.9805 159.044 76.8281 159.026C76.6816 159.009 76.5645 158.985 76.4766 158.956C76.3887 158.927 76.3271 158.889 76.292 158.842C76.2568 158.795 76.2393 158.742 76.2393 158.684V148.453C76.2393 148.178 76.3096 147.973 76.4502 147.838C76.5967 147.697 76.7871 147.627 77.0215 147.627H79.7021C79.9717 147.627 80.2266 147.639 80.4668 147.662C80.7129 147.68 81.0059 147.724 81.3457 147.794C81.6855 147.858 82.0283 147.981 82.374 148.163C82.7256 148.345 83.0244 148.576 83.2705 148.857C83.5166 149.133 83.7041 149.458 83.833 149.833C83.9619 150.202 84.0264 150.618 84.0264 151.081ZM81.6094 151.248C81.6094 150.85 81.5391 150.521 81.3984 150.264C81.2578 150.006 81.085 149.815 80.8799 149.692C80.6748 149.569 80.458 149.493 80.2295 149.464C80.0068 149.429 79.7754 149.411 79.5352 149.411H78.5508V153.27H79.5879C79.957 153.27 80.2646 153.22 80.5107 153.12C80.7627 153.021 80.9678 152.883 81.126 152.707C81.2842 152.525 81.4043 152.312 81.4863 152.065C81.5684 151.813 81.6094 151.541 81.6094 151.248ZM93.9053 158.139C93.9756 158.35 94.0195 158.517 94.0371 158.64C94.0547 158.763 94.0312 158.856 93.9668 158.921C93.9023 158.979 93.7881 159.015 93.624 159.026C93.46 159.044 93.2344 159.053 92.9473 159.053C92.6484 159.053 92.4141 159.047 92.2441 159.035C92.0801 159.029 91.9541 159.015 91.8662 158.991C91.7783 158.962 91.7168 158.924 91.6816 158.877C91.6465 158.83 91.6172 158.769 91.5938 158.692L90.8291 156.407H86.5576L85.8369 158.631C85.8135 158.713 85.7812 158.783 85.7402 158.842C85.7051 158.895 85.6436 158.938 85.5557 158.974C85.4736 159.003 85.3535 159.023 85.1953 159.035C85.043 159.047 84.8408 159.053 84.5889 159.053C84.3193 159.053 84.1084 159.044 83.9561 159.026C83.8037 159.009 83.6982 158.968 83.6396 158.903C83.5811 158.833 83.5605 158.736 83.5781 158.613C83.5957 158.49 83.6396 158.326 83.71 158.121L87.2168 148.031C87.252 147.932 87.293 147.853 87.3398 147.794C87.3867 147.729 87.46 147.683 87.5596 147.653C87.665 147.618 87.8086 147.598 87.9902 147.592C88.1719 147.58 88.4121 147.574 88.7109 147.574C89.0566 147.574 89.332 147.58 89.5371 147.592C89.7422 147.598 89.9004 147.618 90.0117 147.653C90.1289 147.683 90.2109 147.729 90.2578 147.794C90.3105 147.858 90.3545 147.946 90.3896 148.058L93.9053 158.139ZM88.6846 149.798H88.6758L87.0674 154.632H90.293L88.6846 149.798ZM103.942 158.701C103.942 158.766 103.931 158.821 103.907 158.868C103.884 158.909 103.828 158.944 103.74 158.974C103.652 159.003 103.523 159.023 103.354 159.035C103.184 159.047 102.952 159.053 102.659 159.053C102.413 159.053 102.217 159.047 102.07 159.035C101.924 159.023 101.807 159.003 101.719 158.974C101.637 158.938 101.578 158.897 101.543 158.851C101.508 158.798 101.479 158.736 101.455 158.666L100.436 156.126C100.312 155.839 100.192 155.584 100.075 155.361C99.958 155.139 99.8262 154.954 99.6797 154.808C99.5391 154.655 99.375 154.541 99.1875 154.465C99 154.389 98.7832 154.351 98.5371 154.351H97.8164V158.684C97.8164 158.742 97.7959 158.795 97.7549 158.842C97.7197 158.889 97.6582 158.927 97.5703 158.956C97.4824 158.985 97.3652 159.009 97.2188 159.026C97.0723 159.044 96.8848 159.053 96.6562 159.053C96.4336 159.053 96.2461 159.044 96.0938 159.026C95.9473 159.009 95.8301 158.985 95.7422 158.956C95.6543 158.927 95.5928 158.889 95.5576 158.842C95.5225 158.795 95.5049 158.742 95.5049 158.684V148.356C95.5049 148.099 95.5693 147.914 95.6982 147.803C95.833 147.686 95.9971 147.627 96.1904 147.627H99.1348C99.4336 147.627 99.6797 147.633 99.873 147.645C100.066 147.656 100.242 147.671 100.4 147.688C100.857 147.753 101.268 147.864 101.631 148.022C102 148.181 102.311 148.389 102.562 148.646C102.82 148.898 103.017 149.2 103.151 149.552C103.286 149.897 103.354 150.296 103.354 150.747C103.354 151.128 103.304 151.477 103.204 151.793C103.11 152.104 102.97 152.382 102.782 152.628C102.595 152.874 102.363 153.088 102.088 153.27C101.812 153.451 101.499 153.598 101.147 153.709C101.317 153.791 101.476 153.891 101.622 154.008C101.774 154.125 101.915 154.269 102.044 154.438C102.179 154.603 102.305 154.793 102.422 155.01C102.539 155.221 102.653 155.461 102.765 155.73L103.723 157.972C103.811 158.194 103.869 158.358 103.898 158.464C103.928 158.563 103.942 158.643 103.942 158.701ZM100.963 150.984C100.963 150.609 100.878 150.293 100.708 150.035C100.538 149.777 100.26 149.596 99.873 149.49C99.7559 149.461 99.6211 149.438 99.4688 149.42C99.3223 149.402 99.1172 149.394 98.8535 149.394H97.8164V152.619H98.9941C99.3223 152.619 99.6094 152.581 99.8555 152.505C100.102 152.423 100.307 152.312 100.471 152.171C100.635 152.024 100.758 151.852 100.84 151.652C100.922 151.453 100.963 151.23 100.963 150.984ZM113.039 148.576C113.039 148.746 113.03 148.893 113.013 149.016C113.001 149.133 112.98 149.229 112.951 149.306C112.922 149.376 112.884 149.429 112.837 149.464C112.796 149.499 112.749 149.517 112.696 149.517H109.849V158.684C109.849 158.742 109.828 158.795 109.787 158.842C109.752 158.889 109.69 158.927 109.603 158.956C109.515 158.985 109.395 159.009 109.242 159.026C109.096 159.044 108.911 159.053 108.688 159.053C108.466 159.053 108.278 159.044 108.126 159.026C107.979 159.009 107.862 158.985 107.774 158.956C107.687 158.927 107.622 158.889 107.581 158.842C107.546 158.795 107.528 158.742 107.528 158.684V149.517H104.681C104.622 149.517 104.572 149.499 104.531 149.464C104.49 149.429 104.455 149.376 104.426 149.306C104.396 149.229 104.373 149.133 104.355 149.016C104.344 148.893 104.338 148.746 104.338 148.576C104.338 148.4 104.344 148.251 104.355 148.128C104.373 148.005 104.396 147.908 104.426 147.838C104.455 147.762 104.49 147.709 104.531 147.68C104.572 147.645 104.622 147.627 104.681 147.627H112.696C112.749 147.627 112.796 147.645 112.837 147.68C112.884 147.709 112.922 147.762 112.951 147.838C112.98 147.908 113.001 148.005 113.013 148.128C113.03 148.251 113.039 148.4 113.039 148.576ZM123.762 158.191C123.762 158.326 123.738 158.446 123.691 158.552C123.645 158.657 123.58 158.745 123.498 158.815C123.422 158.886 123.328 158.938 123.217 158.974C123.111 159.003 123.003 159.018 122.892 159.018H121.907C121.702 159.018 121.523 158.997 121.371 158.956C121.225 158.915 121.087 158.842 120.958 158.736C120.835 158.625 120.715 158.479 120.598 158.297C120.48 158.109 120.349 157.869 120.202 157.576L117.372 152.259C117.208 151.942 117.041 151.603 116.871 151.239C116.701 150.87 116.549 150.513 116.414 150.167H116.396C116.42 150.589 116.438 151.011 116.449 151.433C116.461 151.849 116.467 152.279 116.467 152.725V158.675C116.467 158.733 116.449 158.786 116.414 158.833C116.385 158.88 116.329 158.921 116.247 158.956C116.171 158.985 116.065 159.009 115.931 159.026C115.796 159.044 115.623 159.053 115.412 159.053C115.207 159.053 115.037 159.044 114.902 159.026C114.768 159.009 114.662 158.985 114.586 158.956C114.51 158.921 114.457 158.88 114.428 158.833C114.398 158.786 114.384 158.733 114.384 158.675V148.453C114.384 148.178 114.463 147.973 114.621 147.838C114.785 147.697 114.984 147.627 115.219 147.627H116.458C116.681 147.627 116.868 147.647 117.021 147.688C117.173 147.724 117.308 147.785 117.425 147.873C117.548 147.961 117.662 148.084 117.768 148.242C117.873 148.395 117.981 148.585 118.093 148.813L120.308 152.971C120.437 153.223 120.562 153.472 120.686 153.718C120.814 153.958 120.938 154.201 121.055 154.447C121.172 154.688 121.286 154.925 121.397 155.159C121.509 155.394 121.617 155.628 121.723 155.862H121.731C121.714 155.452 121.699 155.024 121.688 154.579C121.682 154.134 121.679 153.709 121.679 153.305V147.97C121.679 147.911 121.696 147.858 121.731 147.812C121.767 147.765 121.825 147.724 121.907 147.688C121.989 147.653 122.098 147.63 122.232 147.618C122.367 147.601 122.54 147.592 122.751 147.592C122.95 147.592 123.117 147.601 123.252 147.618C123.387 147.63 123.489 147.653 123.56 147.688C123.636 147.724 123.688 147.765 123.718 147.812C123.747 147.858 123.762 147.911 123.762 147.97V158.191ZM132.99 158.095C132.99 158.265 132.981 158.408 132.964 158.525C132.952 158.637 132.932 158.728 132.902 158.798C132.873 158.868 132.835 158.921 132.788 158.956C132.747 158.985 132.7 159 132.647 159H126.935C126.741 159 126.577 158.944 126.442 158.833C126.313 158.716 126.249 158.528 126.249 158.271V148.356C126.249 148.099 126.313 147.914 126.442 147.803C126.577 147.686 126.741 147.627 126.935 147.627H132.612C132.665 147.627 132.712 147.642 132.753 147.671C132.794 147.7 132.829 147.753 132.858 147.829C132.888 147.899 132.908 147.993 132.92 148.11C132.938 148.222 132.946 148.365 132.946 148.541C132.946 148.705 132.938 148.846 132.92 148.963C132.908 149.074 132.888 149.165 132.858 149.235C132.829 149.306 132.794 149.358 132.753 149.394C132.712 149.423 132.665 149.438 132.612 149.438H128.552V152.215H131.988C132.041 152.215 132.088 152.232 132.129 152.268C132.176 152.297 132.214 152.347 132.243 152.417C132.272 152.481 132.293 152.572 132.305 152.689C132.322 152.801 132.331 152.938 132.331 153.103C132.331 153.272 132.322 153.413 132.305 153.524C132.293 153.636 132.272 153.727 132.243 153.797C132.214 153.861 132.176 153.908 132.129 153.938C132.088 153.967 132.041 153.981 131.988 153.981H128.552V157.189H132.647C132.7 157.189 132.747 157.207 132.788 157.242C132.835 157.271 132.873 157.321 132.902 157.392C132.932 157.462 132.952 157.556 132.964 157.673C132.981 157.784 132.99 157.925 132.99 158.095ZM143.476 158.701C143.476 158.766 143.464 158.821 143.44 158.868C143.417 158.909 143.361 158.944 143.273 158.974C143.186 159.003 143.057 159.023 142.887 159.035C142.717 159.047 142.485 159.053 142.192 159.053C141.946 159.053 141.75 159.047 141.604 159.035C141.457 159.023 141.34 159.003 141.252 158.974C141.17 158.938 141.111 158.897 141.076 158.851C141.041 158.798 141.012 158.736 140.988 158.666L139.969 156.126C139.846 155.839 139.726 155.584 139.608 155.361C139.491 155.139 139.359 154.954 139.213 154.808C139.072 154.655 138.908 154.541 138.721 154.465C138.533 154.389 138.316 154.351 138.07 154.351H137.35V158.684C137.35 158.742 137.329 158.795 137.288 158.842C137.253 158.889 137.191 158.927 137.104 158.956C137.016 158.985 136.898 159.009 136.752 159.026C136.605 159.044 136.418 159.053 136.189 159.053C135.967 159.053 135.779 159.044 135.627 159.026C135.48 159.009 135.363 158.985 135.275 158.956C135.188 158.927 135.126 158.889 135.091 158.842C135.056 158.795 135.038 158.742 135.038 158.684V148.356C135.038 148.099 135.103 147.914 135.231 147.803C135.366 147.686 135.53 147.627 135.724 147.627H138.668C138.967 147.627 139.213 147.633 139.406 147.645C139.6 147.656 139.775 147.671 139.934 147.688C140.391 147.753 140.801 147.864 141.164 148.022C141.533 148.181 141.844 148.389 142.096 148.646C142.354 148.898 142.55 149.2 142.685 149.552C142.819 149.897 142.887 150.296 142.887 150.747C142.887 151.128 142.837 151.477 142.737 151.793C142.644 152.104 142.503 152.382 142.315 152.628C142.128 152.874 141.896 153.088 141.621 153.27C141.346 153.451 141.032 153.598 140.681 153.709C140.851 153.791 141.009 153.891 141.155 154.008C141.308 154.125 141.448 154.269 141.577 154.438C141.712 154.603 141.838 154.793 141.955 155.01C142.072 155.221 142.187 155.461 142.298 155.73L143.256 157.972C143.344 158.194 143.402 158.358 143.432 158.464C143.461 158.563 143.476 158.643 143.476 158.701ZM140.496 150.984C140.496 150.609 140.411 150.293 140.241 150.035C140.071 149.777 139.793 149.596 139.406 149.49C139.289 149.461 139.154 149.438 139.002 149.42C138.855 149.402 138.65 149.394 138.387 149.394H137.35V152.619H138.527C138.855 152.619 139.143 152.581 139.389 152.505C139.635 152.423 139.84 152.312 140.004 152.171C140.168 152.024 140.291 151.852 140.373 151.652C140.455 151.453 140.496 151.23 140.496 150.984Z" fill="#FA790E"/>
<path d="M47.3166 140.845C47.3166 144.67 47.2756 148.536 47.3576 152.361C47.3985 153.419 47.0299 153.745 46.0058 153.663C45.0636 153.582 44.1215 153.582 43.1384 153.663C42.1143 153.745 41.8685 153.338 41.8685 152.361C41.9505 146.298 41.9505 140.235 41.9505 134.212C41.9505 130.632 41.9914 127.091 41.9505 123.51C41.9505 122.819 42.1143 122.412 42.7288 122.045C47.9311 118.709 53.4201 117.814 59.3597 119.767C63.7837 121.272 66.9379 125.667 67.1017 130.306C67.2246 135.23 65.3813 139.136 60.9163 141.293C56.4923 143.45 51.9045 143.531 47.5624 140.845C47.4395 140.845 47.3985 140.845 47.3166 140.845ZM47.2756 130.062C47.2756 131.567 47.2756 133.073 47.2756 134.619C47.2347 135.108 47.4395 135.555 47.7672 135.922C50.1431 138.363 54.7309 139.136 57.8031 137.671C62.2271 135.596 63.0874 129.37 59.9332 125.789C56.7791 122.208 50.9623 122.819 47.7262 124.568C47.2756 124.813 47.2756 125.219 47.2756 125.626C47.2756 127.132 47.2756 128.597 47.2756 130.062Z" fill="#FA790E"/>
<path d="M134.486 131.527C131.619 131.527 128.751 131.567 125.925 131.527C125.023 131.527 124.86 131.771 125.064 132.666C126.211 137.631 130.963 139.299 135.264 138.2C137.026 137.753 138.664 136.857 139.975 135.596C140.344 135.23 140.548 135.189 140.958 135.596C141.695 136.328 142.556 137.02 143.375 137.631C143.948 138.078 143.866 138.363 143.375 138.851C140.876 141.008 138.009 142.392 134.732 142.717C131.086 143.083 127.563 142.636 124.491 140.479C120.845 137.956 119.534 134.335 119.575 130.021C119.616 124.731 123.385 120.214 128.587 119.156C133.953 118.058 139.647 119.238 142.719 124.69C143.744 126.481 144.112 128.434 144.194 130.428C144.235 131.283 143.907 131.527 143.088 131.527C140.18 131.527 137.312 131.527 134.486 131.527ZM131.782 127.539C133.708 127.539 135.674 127.498 137.599 127.58C138.664 127.62 138.623 127.254 138.255 126.481C137.394 124.772 136.002 123.795 134.24 123.185C130.84 122.005 126.867 123.632 125.392 126.766C125.064 127.498 125.269 127.58 125.925 127.58C127.891 127.539 129.816 127.539 131.782 127.539Z" fill="#FA790E"/>
<path d="M83.6918 131.527C80.9063 131.527 78.1208 131.567 75.3353 131.486C74.4342 131.445 74.0655 131.567 74.2703 132.625C74.9667 135.799 77.6293 138.119 80.8244 138.404C84.0195 138.648 86.7231 137.753 89.017 135.555C89.3447 135.23 89.5905 135.026 90.0411 135.433C90.8603 136.206 91.7615 136.898 92.6217 137.631C93.0723 137.997 93.1133 138.241 92.6627 138.648C88.8941 141.863 84.552 143.205 79.5955 142.554C76.1136 142.066 73.1233 140.723 71.0342 137.834C66.9789 132.178 68.1258 123.144 75.2125 119.97C80.0461 117.813 84.8797 118.017 89.1808 121.313C92.1711 123.592 93.3181 126.847 93.4 130.55C93.441 131.283 93.0314 131.405 92.376 131.405C89.4676 131.527 86.5592 131.527 83.6918 131.527ZM81.1111 127.539C82.9954 127.539 84.9207 127.498 86.846 127.58C87.952 127.62 87.87 127.091 87.5014 126.44C86.6821 124.813 85.2484 123.632 83.487 123.185C80.128 122.208 76.2365 123.307 74.639 126.766C74.3113 127.458 74.5161 127.58 75.1715 127.58C77.1377 127.498 79.1039 127.539 81.1111 127.539Z" fill="#FA790E"/>
<path d="M34.9867 128.638C34.618 126.481 34.5361 124.446 32.2832 123.633C31.0543 123.185 29.8254 122.819 28.5146 123.022C26.6712 123.307 24.8689 123.633 23.1894 124.568C22.6569 124.853 22.4111 124.813 22.1653 124.243C21.8376 123.51 21.428 122.859 21.0593 122.168C20.3629 120.906 20.3629 120.906 21.6737 120.377C25.5243 118.79 29.4977 118.22 33.553 119.36C37.0349 120.296 39.9842 122.941 39.8204 127.213C39.6975 131.12 39.7794 135.026 39.7794 138.933C39.7794 139.665 39.6155 140.072 38.8782 140.438C34.1265 142.717 29.2109 143.694 24.0906 142.066C19.6666 140.642 17.1268 137.183 18.11 132.381C18.6425 129.736 20.5677 128.149 22.9026 127.213C26.0568 125.993 29.3338 125.749 32.5699 127.091C33.4301 127.417 34.1265 127.987 34.9867 128.638ZM34.5361 134.986C34.5361 132.707 34.4542 132.381 33.3072 131.649C30.8904 130.184 28.3097 129.574 25.5243 130.632C22.6978 131.69 21.9605 135.148 24.2954 137.102C26.6712 139.096 29.4567 138.811 32.2012 138.16C34.5771 137.549 34.5361 137.387 34.5361 134.986Z" fill="#FA790E"/>
<path d="M119.289 119.36C115.725 122.534 112.325 125.504 108.884 128.475C108.27 129.004 108.27 129.329 108.843 129.94C112.325 133.683 115.807 137.468 119.248 141.252C119.493 141.537 119.862 141.741 119.862 142.27C117.937 142.27 115.971 142.229 114.045 142.31C113.431 142.31 113.144 141.944 112.816 141.578C110.359 138.77 107.901 135.962 105.402 133.195C105.074 132.829 104.829 131.974 104.009 132.3C103.149 132.625 102.658 133.236 102.699 134.335C102.821 136.613 102.78 138.933 102.862 141.252C102.903 142.107 102.617 142.31 101.838 142.27C100.773 142.188 99.7083 142.188 98.6432 142.27C97.742 142.351 97.5782 142.025 97.5782 141.212C97.6191 135.637 97.6191 130.021 97.6191 124.406C97.6191 121.394 97.6601 118.343 97.5782 115.331C97.5782 114.517 97.824 114.233 98.6023 114.273C99.6673 114.314 100.732 114.355 101.797 114.273C102.576 114.233 102.74 114.558 102.74 115.291C102.699 119.401 102.658 123.47 102.658 127.539C102.658 127.742 102.576 127.987 102.821 128.231C104.132 127.01 105.443 125.789 106.754 124.568C108.433 122.981 110.154 121.435 111.833 119.889C112.079 119.645 112.325 119.441 112.694 119.441C114.865 119.36 116.954 119.36 119.289 119.36Z" fill="#FA790E"/>
<path d="M14.9149 126.278C14.9149 131.283 14.8739 136.288 14.9558 141.252C14.9558 142.066 14.7101 142.188 14.0137 142.188C12.7848 142.148 11.5559 142.107 10.368 142.188C9.50775 142.229 9.38486 141.903 9.38486 141.13C9.42582 131.283 9.38486 121.435 9.42582 111.588C9.42582 110.448 9.18005 110.123 7.99212 110.163C5.61626 110.285 3.28137 110.163 0.905517 110.204C0.209146 110.204 -0.0366321 110.041 0.00433094 109.309C0.045294 108.292 0.045294 107.274 0.00433094 106.257C0.00433094 105.687 0.209146 105.443 0.823591 105.443C8.44271 105.484 16.0618 105.484 23.681 105.443C24.2954 105.443 24.5002 105.606 24.5002 106.257C24.4593 107.274 24.4593 108.292 24.5002 109.309C24.5412 110.001 24.2544 110.204 23.599 110.204C21.1003 110.163 18.5606 110.245 16.0618 110.163C15.2016 110.123 14.9558 110.367 14.9558 111.221C14.9558 116.267 14.9149 121.313 14.9149 126.278Z" fill="#FA790E"/>
<path fill-rule="evenodd" clip-rule="evenodd" d="M54.1257 0.114158C49.2274 0.538247 44.6818 1.92028 40.6084 4.22387C31.2419 9.52041 25.0613 18.9218 24.0851 29.3572C23.9849 30.427 23.9606 37.0754 23.9943 54.1074C24.0358 75.1022 24.0596 77.5015 24.2355 78.4776C25.1265 83.4214 26.563 87.2326 28.9661 91.028C29.8737 92.4616 31.6173 94.7727 31.7912 94.7727C31.835 94.7727 32.9256 93.9736 34.2147 92.9969C35.5039 92.0202 36.7189 91.13 36.9146 91.0189C37.5158 90.6774 37.9712 90.6515 39.7991 90.8547C41.1202 91.0014 41.6225 91.0179 41.8067 90.9204C42.0905 90.7701 42.8853 89.8414 45.7087 86.3607C47.3629 84.3213 47.7384 83.7907 47.7379 83.4936C47.7377 83.293 47.5785 82.7248 47.3843 82.2307C46.6553 80.3766 46.64 79.0713 47.3301 77.6281C47.7513 76.7472 49.0059 75.4378 49.7944 75.0561L50.4081 74.7591L78.4955 74.7614C97.6706 74.7632 106.725 74.8027 107.03 74.8863C107.675 75.063 108.298 75.6401 108.298 76.0609C108.298 76.5165 107.598 77.2706 106.96 77.5029C106.687 77.6021 103.857 78.1865 100.669 78.8018C92.3035 80.4165 87.9113 81.2914 86.8938 81.5455C83.8671 82.3015 81.3252 82.565 76.0541 82.6692C71.5189 82.759 71.8948 82.6968 70.369 83.6082C68.8418 84.5204 66.7395 85.2976 63.5881 86.1153L62.5827 86.376L61.1633 87.7972C59.0729 89.8903 57.4375 91.7181 57.4375 91.9615C57.4375 92.3705 58.0282 92.4323 61.935 92.4323C65.8728 92.4323 66.4496 92.4711 66.3493 92.73C66.3163 92.815 62.6476 95.7161 58.1968 99.1766C53.7458 102.637 50.144 105.507 50.1929 105.554C50.2416 105.601 50.8404 105.726 51.5235 105.831C53.8265 106.188 59.2483 106.256 80.857 106.205C103.504 106.151 102.34 106.182 105.558 105.539C112.66 104.12 119.696 99.8572 124.303 94.184C128.07 89.5444 130.357 84.3623 131.326 78.2726C131.527 77.0064 131.54 75.5182 131.54 53.1128V29.2987L131.272 27.65C130.127 20.6154 126.955 14.4371 121.964 9.52193C116.287 3.93143 109.238 0.741282 101.154 0.10468C99.3076 -0.0406616 55.8133 -0.0320026 54.1257 0.114158ZM80.857 4.14347C83.1731 4.51701 84.9787 5.07345 86.9641 6.02566C92.3591 8.61314 96.4359 13.4133 97.9498 18.9605C98.4559 20.8151 98.6144 22.1037 98.6088 24.3222C98.5857 33.6916 94.3566 43.2519 86.3191 52.1051C83.9651 54.6979 80.1596 58.1783 79.0502 58.7528C78.3195 59.1312 76.7645 59.1279 75.9828 58.7463C74.4603 58.0032 69.2298 52.9007 66.3797 49.3783C62.7964 44.9499 59.9828 40.0197 58.3599 35.3254C56.7359 30.6282 56.0415 25.3177 56.5498 21.4816C57.0074 18.0275 58.2346 15.0466 60.3741 12.1917C63.7687 7.6621 69.2389 4.65158 75.3105 3.97157C76.6053 3.82658 79.4362 3.91434 80.857 4.14347ZM76.0075 9.42773C73.4047 9.70344 70.8825 10.6125 68.6751 12.0703C67.5539 12.8107 65.4635 14.8844 64.7518 15.9619C63.0971 18.4677 62.3757 20.8041 62.3684 23.6816C62.3622 26.1014 62.7763 27.8802 63.825 29.9376C66.403 34.9957 71.6556 38.1314 77.5539 38.1334C83.3022 38.1354 88.6432 34.9645 91.1815 30.0429C92.3232 27.8294 92.744 25.8685 92.6476 23.2135C92.5656 20.9583 92.186 19.4624 91.2068 17.538C89.4941 14.1712 86.4862 11.5722 82.8229 10.2939C80.6268 9.52755 78.0982 9.20621 76.0075 9.42773ZM125.755 62.5104C126.001 62.7939 126.04 62.9575 126.04 63.7115C126.04 64.5359 126.019 64.6067 125.656 64.986C125.212 65.4494 120.794 68.6523 120.384 68.8072C120.227 68.8666 102.014 68.9108 77.6675 68.9108H35.2246L33.823 67.9115C33.0521 67.362 31.8507 66.5062 31.1534 66.0099C29.623 64.9207 29.4767 64.6974 29.5422 63.5507C29.6177 62.2295 29.3597 62.3101 33.7559 62.2346C35.8192 62.1993 57.2988 62.173 81.4882 62.1761L125.469 62.182L125.755 62.5104Z" fill="#FA790E"/>
</svg>
