<svg width="136" height="76" viewBox="0 0 136 76" fill="none" xmlns="http://www.w3.org/2000/svg">
<path fill-rule="evenodd" clip-rule="evenodd" d="M17.4585 43.1246C19.0815 43.1246 20.399 44.4492 20.399 46.0809C20.399 47.7153 19.0815 49.0373 17.4585 49.0373C15.8356 49.0373 14.5181 47.7153 14.5181 46.0809C14.5181 44.4492 15.8356 43.1246 17.4585 43.1246ZM103.043 17.3293C103.04 16.7684 103.075 16.237 103.144 15.7349L97.3612 11.8519C96.5298 11.2937 95.6187 10.6528 94.7049 10.0091C91.4165 7.69373 88.0298 5.30889 84.3801 4.3448C82.4092 3.82404 80.1354 3.47686 77.8059 3.43146C75.7765 3.39407 73.7046 3.58635 71.7576 4.09109C70.5942 4.39554 69.4706 4.81483 68.4293 5.36764C67.5023 5.85903 66.639 6.46259 65.8714 7.18365L61.9879 11.8278C61.871 12.0575 61.7037 12.2551 61.5018 12.4073L50.7945 25.2182C50.9539 26.0381 51.2753 26.7244 51.7135 27.2719C52.2235 27.9075 52.9035 28.3802 53.6871 28.674C54.5159 28.9864 55.4721 29.1066 56.4842 29.0238C58.0992 28.8876 59.8204 28.2253 61.3743 26.9888L64.3493 24.5158C65.101 23.8909 65.7279 23.3167 66.3495 22.7426C67.7228 21.482 69.096 20.2215 70.5357 19.3589C73.872 17.356 77.1923 17.2919 80.4781 22.8307L97.3134 53.361H103.038L103.043 17.3293ZM104.398 12.4421C104.658 12.0789 104.955 11.745 105.29 11.4433C106.759 10.1133 108.863 9.46434 111.562 9.46167V9.45366L126.197 9.459C129.26 9.44565 131.752 10.0091 133.476 11.3444C135.396 12.8293 136.297 15.094 135.911 18.3387L132.676 51.9563C132.44 54.958 131.651 57.3108 130.246 58.9372C128.75 60.6651 126.668 61.517 123.94 61.4022L110.778 61.4048C108.934 61.501 107.373 60.9989 106.066 59.9467C105.107 59.1802 104.315 58.128 103.68 56.8167H99.1276C99.7412 58.6194 99.7093 60.3286 99.2206 61.8482C98.7159 63.4105 97.7357 64.7431 96.4846 65.7392C95.2601 66.7167 93.7646 67.3843 92.2028 67.6433C90.6754 67.8944 89.079 67.7555 87.5942 67.1359C85.8676 68.9519 84.0481 70.095 82.1515 70.6211C80.247 71.1472 78.3185 71.0404 76.3662 70.3513C74.5148 72.4157 72.4668 73.7109 70.2117 74.2023C67.914 74.7017 65.4703 74.3572 62.8831 73.1314C62.0756 73.7644 61.2309 74.2664 60.3517 74.6323C59.1006 75.1531 57.7884 75.3934 56.4204 75.3534C53.1399 75.2546 50.9299 74.2798 49.1715 72.6988C47.4954 71.1926 46.3665 69.2564 45.0942 67.0291L37.84 54.3064H32.214C31.8979 55.9007 31.3534 57.2547 30.5459 58.3417L30.4662 58.4538C29.0318 60.3072 26.9254 61.2927 24.0142 61.2339L11.7396 61.2366C9.30651 61.6318 7.22135 61.0336 5.59042 59.1322C4.14542 57.447 3.15729 54.723 2.73761 50.7118L2.71901 50.5649L0.182293 18.9744C-0.319739 15.564 0.235418 13.1524 1.59807 11.5047C2.97401 9.84357 5.04589 9.09313 7.6012 8.97295L7.8137 8.9596H23.3528V8.96762C25.8098 8.93824 27.9189 9.34684 29.5126 10.383V10.3884C30.8009 11.2269 31.7253 12.4073 32.2007 14.0124H42.7753C45.4315 12.2097 47.9204 10.7943 50.6723 9.9317C53.3737 9.08512 56.2717 8.78868 59.7328 9.20529L63.3506 4.87625L63.486 4.73204C64.4954 3.76796 65.6243 2.97479 66.8382 2.33117C68.1132 1.65551 69.4839 1.14275 70.9023 0.77421C73.1601 0.186678 75.5401 -0.0376502 77.859 0.00507939C80.486 0.0531502 83.0387 0.443057 85.2434 1.02525L85.2487 1.02792C89.4695 2.13889 93.1165 4.70801 96.6573 7.20235C97.502 7.79789 98.344 8.39076 99.2578 9.00233L104.398 12.4421ZM29.1248 16.2183C29.066 16.0165 29.0444 15.8056 29.061 15.596C28.8724 14.4851 28.389 13.7346 27.6718 13.2673C26.6704 12.6237 25.1856 12.3726 23.3714 12.394H23.3528V12.402L7.74729 12.3993C6.14026 12.4768 4.90776 12.864 4.21979 13.6972C3.4787 14.5892 3.21307 16.1302 3.57432 18.5177L3.59026 18.6752L6.12964 50.3512C6.47495 53.6254 7.1762 55.7298 8.16964 56.8889C8.95589 57.8022 10.029 58.0639 11.3173 57.8289C11.4209 57.8102 11.5245 57.7995 11.6254 57.7995L23.9159 57.7942L24.0992 57.8049C25.8204 57.8342 27.0131 57.3161 27.7648 56.344L27.8259 56.2693C28.6573 55.1343 29.0664 53.3824 29.1301 51.139L29.1248 16.2183ZM32.5487 50.8666H38.8281C39.4921 50.8666 40.0685 51.2459 40.3528 51.8014L48.0639 65.3226C49.1928 67.3015 50.1889 69.016 51.4453 70.1457C52.6193 71.2006 54.1573 71.8549 56.516 71.9243C57.4006 71.951 58.2479 71.7961 59.0554 71.4623C59.5495 71.2567 60.0356 70.9789 60.511 70.6318L55.4881 61.1805C55.3825 60.982 55.317 60.7646 55.2951 60.5406C55.2732 60.3167 55.2955 60.0906 55.3606 59.8753C55.4258 59.66 55.5325 59.4597 55.6747 59.2859C55.8169 59.1121 55.9918 58.9682 56.1893 58.8624C57.0207 58.4164 58.054 58.7316 58.4949 59.5675L63.9562 69.8413C65.9909 70.8801 67.8317 71.2033 69.4892 70.8427C71.0032 70.5116 72.4323 69.5982 73.7764 68.1214L65.9059 55.7031C65.6635 55.3195 65.5824 54.8548 65.6805 54.4112C65.7787 53.9675 66.0479 53.5811 66.4292 53.3369C66.6179 53.2162 66.8284 53.1341 67.0486 53.0952C67.2689 53.0563 67.4947 53.0614 67.713 53.1103C67.9313 53.1591 68.1379 53.2508 68.321 53.3799C68.504 53.5091 68.66 53.6733 68.7799 53.8631L77.0754 66.9517C78.5284 67.5445 79.9256 67.6807 81.2564 67.3149C82.526 66.9624 83.7984 66.1425 85.0707 64.8205L77.5562 50.5996C77.3431 50.1969 77.2978 49.7256 77.4304 49.2894C77.5629 48.8532 77.8623 48.4878 78.2628 48.2735C78.6638 48.0603 79.1324 48.0157 79.5661 48.1493C79.9998 48.283 80.3631 48.5841 80.5764 48.9865L88.3485 63.6989C89.3606 64.2864 90.5293 64.4413 91.6556 64.2544C92.6384 64.0941 93.584 63.6695 94.3596 63.0526C95.106 62.4544 95.6878 61.6826 95.972 60.7986C96.2828 59.8292 96.2509 58.6888 95.7143 57.4497C95.6028 57.1933 95.5576 56.9209 95.5762 56.6565C95.3393 56.5536 95.1287 56.398 94.9603 56.2014C94.7919 56.0048 94.67 55.7723 94.604 55.5215L77.5456 24.5826C75.649 21.3939 73.9384 21.3111 72.2862 22.2992C71.1148 23.0016 69.8823 24.1366 68.6471 25.269C67.9007 25.9553 67.149 26.647 66.5275 27.1624L63.4993 29.6701C61.3903 31.3552 59.0156 32.2606 56.7631 32.4502C55.2676 32.573 53.8067 32.3808 52.4971 31.8867C51.1424 31.3766 49.9551 30.5461 49.0546 29.4217C48.0824 28.2093 47.4476 26.6737 47.2962 24.847C47.2537 24.3209 47.4503 23.8348 47.7929 23.4877L57.0128 12.4581C55.0524 12.4314 53.3179 12.7011 51.6896 13.2112C49.206 13.9857 46.8898 15.345 44.3531 17.0836C44.0509 17.3225 43.6776 17.4523 43.2932 17.4521H32.5487V50.8666ZM118.075 43.1246C119.698 43.1246 121.015 44.4492 121.015 46.0809C121.015 47.7153 119.698 49.0373 118.075 49.0373C116.449 49.0373 115.132 47.7153 115.132 46.0809C115.132 44.4492 116.449 43.1246 118.075 43.1246Z" fill="#FA790E"/>
</svg>
