<svg xmlns="http://www.w3.org/2000/svg" viewBox="0 0 596.13 388.36"><defs><style>.cls-1{fill:#666;}</style></defs><title>ICONO MENÚ</title><g id="Capa_2" data-name="Capa 2"><g id="Capa_1-2" data-name="Capa 1"><path class="cls-1" d="M590.29,346c-2.85-.26-5.75-.19-8.62-.19H25c-4.87,0-9.74,0-14.62,0A35.71,35.71,0,0,0,5.7,346a5.71,5.71,0,0,0-5.31,5.11c-.32,1.95-.16,4-.34,6-.36,3.94,1.3,6.59,4.56,8.84,7.66,5.28,15.13,10.81,22.6,16.36,9.26,6.87,7.68,6.06,18.18,6.06H556.27a12.35,12.35,0,0,0,8-2.66c8.72-6.45,17.55-12.76,26.32-19.15a34.86,34.86,0,0,0,3.54-3,5.82,5.82,0,0,0,1.93-4.11,60.21,60.21,0,0,0-.1-7.95C595.55,348.09,593.65,346.29,590.29,346Z"/><path class="cls-1" d="M64.79,321.33a34,34,0,0,0,.7,3.91,3.77,3.77,0,0,0,3.94,2.91,16.88,16.88,0,0,0,2.64-.27l42-6.8q34.74-5.67,69.49-11.32c23.16-3.74,46.35-7.41,69.51-11.15q52.79-8.52,105.56-17.1l99-16.1,62.93-10.27a37.52,37.52,0,0,0,4.54-1c2.54-.75,3.32-1.8,2.91-4.38-.89-5.69-1.66-11.41-3-17a227.15,227.15,0,0,0-25.54-63.92,230.13,230.13,0,0,0-39.68-49.6A232.76,232.76,0,0,0,364.1,63.92c-22-6.73-44.53-9.52-67.41-10.2-2.22,0-4.43,0-6.65,0a21.27,21.27,0,0,1-3.29-.28A1.93,1.93,0,0,1,285,51.08a9.42,9.42,0,0,1,.71-2.54c2-4.58,2.26-9.39,2.37-14.31.31-13.47-6.62-22.79-17.49-29.27-15.68-9.34-36.8-5.68-48.81,12.56a23.65,23.65,0,0,0-3.68,9.21c-1.84,11.42-.54,22.2,7.68,31.07,4.65,5,3.31,5.83-2.46,7.65-2.11.66-4.2,1.42-6.31,2.07-16.2,5-31.23,12.6-45.63,21.35a228.14,228.14,0,0,0-62.08,55.5c-23.64,30.46-39.18,64.62-45,103a229.17,229.17,0,0,0-2.51,42.29A245.49,245.49,0,0,0,64.79,321.33Z"/></g></g></svg>