<svg xmlns="http://www.w3.org/2000/svg" viewBox="0 0 47.79 47.79"><defs></defs><g id="Capa_2" data-name="Capa 2"><g id="Capa_1-2" data-name="Capa 1"><path class="cls-1" d="M25.59,47.79H22.23a2.68,2.68,0,0,0-.27-.07c-.74-.1-1.48-.16-2.21-.29a22.82,22.82,0,0,1-7.55-2.69,23.92,23.92,0,0,1-9.12-9.12,23.66,23.66,0,0,1-3-9.29A24.08,24.08,0,0,1,.18,21,23.5,23.5,0,0,1,2.49,13.3,23.83,23.83,0,0,1,13.35,2.47,23.18,23.18,0,0,1,21.49.12a23.48,23.48,0,0,1,5.3.06,23.18,23.18,0,0,1,5.46,1.33A23.77,23.77,0,0,1,42.86,9.37a23.34,23.34,0,0,1,4.68,11c.09.62.17,1.25.25,1.88v3.36c-.06.41-.12.82-.16,1.23a22.73,22.73,0,0,1-1.33,5.45,23.7,23.7,0,0,1-7.9,10.62,23.4,23.4,0,0,1-10.93,4.65Zm-1.66-3.74A20.15,20.15,0,1,0,3.75,23.9,20.19,20.19,0,0,0,23.93,44.05Z"/><path class="cls-1" d="M25.79,23.12l2.39,1.8L32.32,28a1.9,1.9,0,0,1,.85,1.58,1.86,1.86,0,0,1-2.76,1.64,4.91,4.91,0,0,1-.5-.34c-2.28-1.71-4.56-3.44-6.86-5.14a2.36,2.36,0,0,1-1-2.06c0-3.47,0-6.94,0-10.4a4.1,4.1,0,0,1,0-.61,1.88,1.88,0,0,1,3.73.16c0,.17,0,.34,0,.52q0,4.61,0,9.23Z"/></g></g></svg>