<svg xmlns="http://www.w3.org/2000/svg" viewBox="0 0 76.04 76">
    <g id="Capa_2" data-name="Capa 2">
        <g id="Capa_1-2" data-name="Capa 1">
            <path class="cls-1"
                d="M66.18,54.51c-1.72-.51-2.12-1.7-2.1-3.25,0-5.74,0-11.47,0-17.21,0-2.27.38-2.8,2.51-3.44.22-11.77-9.86-26.64-27-27.56C22,2.11,9.54,16.42,9.37,30.52c2.38,1,2.56,1.21,2.56,3.8q0,8.49,0,17c0,2.43-.74,3.17-3.17,3.18H7C3,54.45.26,52,.1,48,0,44.43,0,40.84.09,37.25s2.22-5.81,6.16-6.66C6.9,20.41,11.2,12.09,19.49,6A30.52,30.52,0,0,1,40.08.07a31.85,31.85,0,0,1,29.7,30.5,14.09,14.09,0,0,1,2,.51,6.51,6.51,0,0,1,4.14,6.14c.16,3.57.13,7.17,0,10.75s-2.36,5.92-6.1,6.53c-.33.06-.71.61-.82,1a24.94,24.94,0,0,1-6.17,11c-4.12,4.3-9.3,6.26-15.08,6.89a3.17,3.17,0,0,0-2.33,1.18,4.29,4.29,0,0,1-2.7,1.3c-2.34.18-4.72.09-7.08,0a3.55,3.55,0,1,1,0-7.1c2.32,0,4.64-.12,6.95,0a9.49,9.49,0,0,1,2.8,1.17c.36.16.71.53,1,.5C52.64,70,58.05,68,62,63A21.76,21.76,0,0,0,66.18,54.51Z" />
        </g>
    </g>
</svg>