<svg xmlns="http://www.w3.org/2000/svg" viewBox="0 0 110.53 72.01"><defs></defs><g id="Capa_2" data-name="Capa 2"><g id="Capa_1-2" data-name="Capa 1"><path class="cls-1" d="M109.45,64.15c-.53-.05-1.07,0-1.6,0H1.92a6.12,6.12,0,0,0-.86,0,1.07,1.07,0,0,0-1,.95c-.06.36,0,.74-.06,1.1a1.65,1.65,0,0,0,.85,1.64c1.41,1,2.8,2,4.18,3C6.76,72.15,6.47,72,8.42,72h94.72a2.28,2.28,0,0,0,1.48-.49c1.62-1.2,3.25-2.37,4.88-3.55a7,7,0,0,0,.66-.56,1,1,0,0,0,.35-.76,10.29,10.29,0,0,0,0-1.47A1,1,0,0,0,109.45,64.15Z"/><path class="cls-1" d="M12,59.58c0,.24.07.49.13.72a.7.7,0,0,0,.73.54,2.63,2.63,0,0,0,.49-.05l7.78-1.26L34,57.43l12.88-2.06,19.58-3.18,18.35-3,11.67-1.9a7.86,7.86,0,0,0,.84-.19c.47-.14.62-.33.54-.81-.16-1.05-.31-2.12-.55-3.15a42.11,42.11,0,0,0-4.73-11.85,42.71,42.71,0,0,0-7.36-9.2A43.24,43.24,0,0,0,67.51,11.85,47.3,47.3,0,0,0,55,10H53.78a6,6,0,0,1-.61-.05.36.36,0,0,1-.33-.44A1.93,1.93,0,0,1,53,9a6.84,6.84,0,0,0,.44-2.65A5.89,5.89,0,0,0,50.17.92a6.64,6.64,0,0,0-9.05,2.33A4.39,4.39,0,0,0,40.44,5a6.48,6.48,0,0,0,1.42,5.76c.86.93.62,1.08-.45,1.41-.4.13-.78.27-1.17.39a37.6,37.6,0,0,0-8.47,4A42.37,42.37,0,0,0,20.26,26.77a40.72,40.72,0,0,0-8.34,19.09,42.84,42.84,0,0,0-.46,7.84A44.48,44.48,0,0,0,12,59.58Z"/></g></g></svg>