<svg width="100" height="100" viewBox="0 0 100 100" fill="none" xmlns="http://www.w3.org/2000/svg">
<path d="M30.2235 77.058L33.2402 78.8205C38.3272 81.788 44.1134 83.3457 50.0027 83.333C56.5954 83.333 63.04 81.378 68.5217 77.7153C74.0033 74.0526 78.2757 68.8467 80.7987 62.7558C83.3216 56.6649 83.9817 49.9627 82.6955 43.4967C81.4093 37.0306 78.2346 31.0912 73.5729 26.4294C68.9111 21.7677 62.9717 18.593 56.5057 17.3068C50.0396 16.0207 43.3374 16.6808 37.2466 19.2037C31.1557 21.7266 25.9497 25.999 22.287 31.4807C18.6243 36.9623 16.6693 43.407 16.6693 49.9997C16.6572 55.8908 18.2163 61.6785 21.186 66.7663L22.9443 69.783L20.2235 79.7872L30.2235 77.058ZM8.35267 91.6663L13.986 70.9663C10.2733 64.6035 8.3231 57.3664 8.336 49.9997C8.336 26.9872 26.9902 8.33301 50.0027 8.33301C73.0152 8.33301 91.6693 26.9872 91.6693 49.9997C91.6693 73.0122 73.0152 91.6663 50.0027 91.6663C42.6391 91.679 35.4051 89.7303 29.0443 86.0205L8.35267 91.6663ZM34.9652 30.4497C35.5263 30.4108 36.086 30.4052 36.6443 30.433C36.8693 30.4497 37.0943 30.4719 37.3193 30.4997C37.9818 30.5747 38.711 30.9788 38.9568 31.5372C40.1985 34.3566 41.4041 37.19 42.5735 40.0372C42.8318 40.6705 42.6777 41.483 42.186 42.2747C41.936 42.6788 41.5443 43.2455 41.0902 43.8247C40.6193 44.4288 39.6068 45.5372 39.6068 45.5372C39.6068 45.5372 39.1943 46.0288 39.3527 46.6413C39.411 46.8747 39.6027 47.2122 39.7777 47.4955L40.0235 47.8913C41.0902 49.6705 42.5235 51.4747 44.2735 53.1747C44.7735 53.658 45.261 54.1538 45.786 54.6163C47.736 56.3372 49.9443 57.7413 52.3277 58.783L52.3485 58.7913C52.7027 58.9455 52.8818 59.0288 53.3985 59.2497C53.6568 59.358 53.9221 59.4497 54.1943 59.5247C54.2943 59.5525 54.3957 59.5677 54.4985 59.5705C54.7361 59.5796 54.9723 59.5304 55.1865 59.4273C55.4008 59.3241 55.5865 59.1702 55.7277 58.9788C58.7402 55.3288 59.0193 55.0913 59.0402 55.0913V55.0997C59.2494 54.9037 59.4984 54.7551 59.7701 54.6638C60.0419 54.5725 60.3301 54.5407 60.6152 54.5705C60.8707 54.5816 61.1166 54.6372 61.3527 54.7372C63.5652 55.7497 67.186 57.3288 67.186 57.3288L69.611 58.4163C70.0193 58.6122 70.3902 59.0747 70.4027 59.5205C70.4193 59.7997 70.4443 60.2497 70.3485 61.0747C70.2152 62.1538 69.8902 63.4497 69.5652 64.1288C69.3399 64.5908 69.0448 65.0152 68.6902 65.3872C68.2694 65.8282 67.8091 66.2299 67.3152 66.5872C66.9707 66.8427 66.7971 66.9677 66.7943 66.9622C66.2762 67.2911 65.7437 67.5969 65.1985 67.8788C64.1252 68.4474 62.9406 68.7745 61.7277 68.8372C60.9568 68.8788 60.186 68.9372 59.411 68.8955C59.3777 68.8955 57.0443 68.533 57.0443 68.533C51.1205 66.9745 45.642 64.0555 41.0443 60.008C40.1027 59.1788 39.2277 58.2872 38.336 57.3997C34.636 53.7122 31.8318 49.733 30.1277 45.9747C29.2631 44.1298 28.7947 42.1242 28.7527 40.0872C28.737 37.557 29.5654 35.0937 31.1068 33.0872C31.411 32.6955 31.6985 32.2872 32.1943 31.8163C32.7193 31.3163 33.0568 31.0497 33.4193 30.8663C33.9028 30.6288 34.4278 30.4873 34.9652 30.4497Z" fill="white"/>
</svg>
