<svg width="20" height="21" viewBox="0 0 20 21" fill="none" xmlns="http://www.w3.org/2000/svg">
<g clip-path="url(#clip0_1214_978)">
<path fill-rule="evenodd" clip-rule="evenodd" d="M12.5275 2.49084H7.54579V1.24542H12.5275V2.49084ZM20 3.80952V17.5824C20 18.9744 18.9011 20.1465 17.5092 20.1465H2.49084C1.0989 20.0733 0 18.9744 0 17.5824V3.80952C0 2.41758 1.0989 1.31868 2.49084 1.31868V2.5641C1.8315 2.5641 1.24542 3.15018 1.24542 3.80952V6.30037H18.8278V3.80952C18.8278 3.15018 18.2418 2.5641 17.5824 2.5641V1.24542C18.9011 1.24542 20 2.41758 20 3.80952ZM4.98169 15.6777H1.24542V17.5824C1.24542 18.315 1.8315 18.8278 2.49084 18.8278H4.98169V15.6777ZM4.98169 11.9414H1.24542V14.4322H5.05495V11.9414H4.98169ZM4.98169 7.54579H1.24542V10.696H5.05495V7.54579H4.98169ZM9.37729 15.6777H6.22711V18.8278H9.37729V15.6777ZM9.37729 11.9414H6.22711V14.4322H9.37729V11.9414ZM9.37729 7.54579H6.22711V10.696H9.37729V7.54579ZM13.7729 15.6777H10.6227V18.8278H13.7729V15.6777ZM13.7729 11.9414H10.6227V14.4322H13.7729V11.9414ZM13.7729 7.54579H10.6227V10.696H13.7729V7.54579ZM18.7546 15.6777H14.9451V18.8278H17.4359C18.0952 18.8278 18.6813 18.2418 18.6813 17.5824V15.6777H18.7546ZM18.7546 11.9414H14.9451V14.4322H18.7546V11.9414ZM18.7546 7.54579H14.9451V10.696H18.7546V7.54579ZM4.3956 3.80952H5.64103C6.00733 3.80952 6.30037 3.51648 6.30037 3.22344V0.659341C6.22711 0.29304 6.00733 0 5.64103 0H4.3956C4.0293 0 3.73626 0.29304 3.73626 0.659341V3.15018C3.73626 3.51648 4.0293 3.80952 4.3956 3.80952ZM14.4322 3.80952H15.6777C16.044 3.80952 16.337 3.51648 16.337 3.22344V0.659341C16.337 0.29304 16.044 0 15.6777 0H14.4322C14.0659 0 13.7729 0.29304 13.7729 0.659341V3.15018C13.7729 3.51648 14.0659 3.80952 14.4322 3.80952Z" fill="white"/>
</g>
<defs>
<clipPath id="clip0_1214_978">
<rect width="20" height="20.0733" fill="white"/>
</clipPath>
</defs>
</svg>
