<svg width="14" height="22" viewBox="0 0 14 22" fill="none" xmlns="http://www.w3.org/2000/svg">
<g clip-path="url(#clip0_1214_983)">
<path fill-rule="evenodd" clip-rule="evenodd" d="M11.1834 11.4016C11.2663 11.4016 11.2663 11.4016 11.3491 11.4016C12.0947 11.4016 12.426 11.0805 12.426 10.3578C12.426 9.63521 12.7574 9.15346 13.3373 8.752C13.9172 8.43083 14.0828 7.94908 13.7515 7.30674C13.4201 6.7447 13.4201 6.10237 13.7515 5.54032C14.0828 4.97828 14 4.49653 13.3373 4.09507C12.7574 3.7739 12.426 3.21185 12.426 2.48923C12.426 1.7666 12.0947 1.44543 11.3491 1.44543C10.6036 1.44543 10.1065 1.12426 9.69231 0.562219C9.36095 0.000175371 8.8639 -0.160409 8.20118 0.160759C7.53846 0.481927 6.95858 0.481927 6.29586 0.160759C5.79882 -0.160409 5.30178 0.000175371 4.97041 0.562219C4.55621 1.12426 4.05917 1.44543 3.31361 1.44543C2.56805 1.44543 2.23669 1.7666 2.23669 2.48923C2.23669 3.21185 1.90533 3.69361 1.32544 4.09507C0.745562 4.49653 0.579882 4.89799 0.911243 5.54032C1.2426 6.18266 1.2426 6.7447 0.911243 7.30674C0.579882 7.94908 0.662722 8.43083 1.32544 8.752C1.90533 9.15346 2.23669 9.63521 2.23669 10.3578C2.23669 10.8396 2.40237 11.1608 2.73373 11.3213L0 20.6352L3.31361 18.2265L4.72189 22.0002L6.95858 14.4527L9.19527 22.0002L10.6864 18.2265L14 20.6352L11.1834 11.4016ZM7.37278 3.93448L7.86982 5.62061H9.52663L8.20118 6.7447L8.69823 8.43083L7.37278 7.38704L6.04734 8.43083L6.54438 6.7447L5.21894 5.7009H6.87574L7.37278 3.93448ZM7.37278 10.1973C5.21894 10.1973 3.47929 8.51112 3.47929 6.42353C3.47929 4.33594 5.21894 2.64981 7.37278 2.64981C9.52663 2.64981 11.2663 4.33594 11.2663 6.42353C11.2663 8.51112 9.52663 10.1973 7.37278 10.1973Z" fill="white"/>
</g>
<defs>
<clipPath id="clip0_1214_983">
<rect width="14" height="22" fill="white"/>
</clipPath>
</defs>
</svg>
