<svg width="22" height="22" viewBox="0 0 22 22" fill="none" xmlns="http://www.w3.org/2000/svg">
<path d="M21.1168 6.82482C19.9124 3.85401 17.4234 1.60584 14.4526 0.562044C13.3285 0.160584 12.2044 0 11 0C9.79562 0 8.67153 0.160584 7.54744 0.562044C6.58394 0.883212 5.70073 1.28467 4.89781 1.84672L3.93431 0.883212C3.77372 0.722628 3.53285 0.722628 3.37226 0.883212L1.12409 3.13139C0.963504 3.29197 0.963504 3.53285 1.12409 3.69343L2.0073 4.57664C1.52555 5.29927 1.12409 6.0219 0.80292 6.82482C0.240876 8.10949 0 9.55474 0 11C0 12.5255 0.321168 13.8905 0.80292 15.1752C2.40876 19.1898 6.34307 22 11 22C15.5766 22 19.5109 19.1898 21.1168 15.1752C21.6788 13.8905 21.9197 12.5255 21.9197 11C22 9.47445 21.6788 8.10949 21.1168 6.82482ZM11.4818 7.86861C11.2409 7.86861 11.0803 8.0292 11.0803 8.27007V11.4015H8.35036C8.10949 11.4015 7.9489 11.562 7.9489 11.8029C7.9489 12.0438 8.10949 12.2044 8.35036 12.2044H11.562C11.8029 12.2044 11.9635 12.0438 11.9635 11.8029V8.27007C11.8832 8.0292 11.7226 7.86861 11.4818 7.86861ZM11 3.45255C15.0949 3.45255 18.4672 6.82482 18.4672 10.9197C18.4672 15.0146 15.0949 18.3869 11 18.3869C6.90511 18.3869 3.53285 15.0146 3.53285 10.9197C3.53285 6.82482 6.82482 3.45255 11 3.45255ZM16.5401 10.9197C16.5401 10.6788 16.7007 10.438 17.0219 10.438H17.8248C17.7445 9.55474 17.5036 8.67153 17.1022 7.86861L16.3796 8.27007C16.2993 8.35037 16.219 8.35036 16.1387 8.35036C15.9781 8.35036 15.8175 8.27007 15.7372 8.10949C15.6569 7.86861 15.6569 7.62774 15.8978 7.46715L16.6204 7.06569C16.1387 6.34307 15.4963 5.70073 14.7737 5.13869L14.3723 5.86131C14.292 6.0219 14.1314 6.10219 13.9708 6.10219C13.8905 6.10219 13.8102 6.10219 13.7299 6.0219C13.4891 5.86131 13.4088 5.62044 13.5693 5.37956L13.9708 4.65693C13.1679 4.25547 12.2847 4.0146 11.4015 3.93431V4.73723C11.4015 4.9781 11.1606 5.21898 10.9197 5.21898C10.6788 5.21898 10.438 4.9781 10.438 4.73723V4.0146C9.23358 4.09489 7.54745 4.17518 8.27007 5.37956C8.43066 5.62044 8.35036 5.86131 8.10949 6.0219C7.9489 6.18248 7.70803 6.10219 7.54744 5.94161L7.14599 5.21898C6.42336 5.70073 5.78102 6.34307 5.29927 7.06569L6.0219 7.46715C6.26277 7.62774 6.34307 7.86861 6.18248 8.10949C6.10219 8.27007 5.94161 8.35036 5.78102 8.35036C5.70073 8.35036 5.62044 8.35037 5.54015 8.27007L4.81752 7.86861C4.41606 8.67153 4.17518 9.55474 4.09489 10.438H4.89781C5.13869 10.438 5.37956 10.5985 5.37956 10.9197C5.37956 11.1606 5.13869 11.4015 4.89781 11.4015H4.09489C4.17518 12.2847 4.41606 13.1679 4.81752 13.9708L5.54015 13.5693C5.78102 13.4088 6.0219 13.4891 6.18248 13.7299C6.34307 13.9708 6.26277 14.2117 6.0219 14.3723L5.29927 14.7737C5.94161 15.7372 6.90511 17.1825 7.62774 15.9781C7.70803 15.7372 8.0292 15.6569 8.27007 15.8175C8.51095 15.9781 8.59124 16.219 8.43066 16.4599L8.0292 17.1825C8.83212 17.5839 9.71533 17.8248 10.5985 17.9051V17.1022C10.5985 16.8613 10.7591 16.6204 11.0803 16.6204C11.3212 16.6204 11.562 16.8613 11.562 17.1022V17.9051C12.4453 17.8248 13.3285 17.5839 14.1314 17.1825L13.7299 16.4599C13.5693 16.219 13.6496 15.9781 13.8905 15.8175C14.1314 15.6569 14.3723 15.7372 14.5328 15.9781L14.9343 16.7007C15.6569 16.219 16.2993 15.5766 16.781 14.7737L16.0584 14.3723C15.8175 14.2117 15.7372 13.9708 15.8978 13.7299C16.0584 13.4891 16.2993 13.4088 16.5401 13.5693L17.2628 13.9708C17.6642 13.1679 17.9051 12.2847 17.9854 11.4015H17.1825C16.781 11.4015 16.5401 11.1606 16.5401 10.9197ZM19.7518 15.1752C18.2263 18.4672 14.854 20.7153 10.9197 20.7153C7.06569 20.7153 3.69343 18.4672 2.08759 15.1752C1.52555 13.8905 1.12409 12.4453 1.12409 11C1.12409 9.47445 1.44526 8.10949 2.08759 6.82482C3.21168 4.57664 5.05839 2.81022 7.46715 1.92701C8.51095 1.52555 9.71533 1.28467 10.9197 1.28467C12.1241 1.28467 13.3285 1.52555 14.3723 1.92701C16.7007 2.81022 18.6277 4.57664 19.7518 6.82482C20.3942 8.10949 20.7153 9.55474 20.7153 11C20.7153 12.5255 20.3942 13.8905 19.7518 15.1752Z" fill="white"/>
</svg>
